<svg xmlns="http://www.w3.org/2000/svg" xmlns:xlink="http://www.w3.org/1999/xlink" width="1920" zoomAndPan="magnify" viewBox="0 0 1440 1439.999935" height="1920" preserveAspectRatio="xMidYMid meet" version="1.0"><defs><clipPath id="309a59fb52"><path d="M 500 894 L 700 894 L 700 1077 L 500 1077 Z M 500 894 " clip-rule="nonzero"/></clipPath><clipPath id="8209fd8903"><path d="M -148.328125 780.445312 L 721.945312 -89.824219 L 1774.117188 962.347656 L 903.847656 1832.621094 Z M -148.328125 780.445312 " clip-rule="nonzero"/></clipPath><clipPath id="8745f4a11d"><path d="M -148.328125 780.445312 L 721.945312 -89.824219 L 1774.117188 962.347656 L 903.847656 1832.621094 Z M -148.328125 780.445312 " clip-rule="nonzero"/></clipPath><clipPath id="bb2efd27eb"><path d="M 489 882 L 711 882 L 711 1087 L 489 1087 Z M 489 882 " clip-rule="nonzero"/></clipPath><clipPath id="16c881558b"><path d="M -148.328125 780.445312 L 721.945312 -89.824219 L 1774.117188 962.347656 L 903.847656 1832.621094 Z M -148.328125 780.445312 " clip-rule="nonzero"/></clipPath><clipPath id="46c2eec3b6"><path d="M -148.328125 780.445312 L 721.945312 -89.824219 L 1774.117188 962.347656 L 903.847656 1832.621094 Z M -148.328125 780.445312 " clip-rule="nonzero"/></clipPath><clipPath id="808e580398"><path d="M 453 6 L 959 6 L 959 481 L 453 481 Z M 453 6 " clip-rule="nonzero"/></clipPath><clipPath id="a4280d69c3"><path d="M -148.328125 780.445312 L 721.945312 -89.824219 L 1774.117188 962.347656 L 903.847656 1832.621094 Z M -148.328125 780.445312 " clip-rule="nonzero"/></clipPath><clipPath id="52d41d4ab9"><path d="M -148.328125 780.445312 L 721.945312 -89.824219 L 1774.117188 962.347656 L 903.847656 1832.621094 Z M -148.328125 780.445312 " clip-rule="nonzero"/></clipPath><clipPath id="0d9590a401"><path d="M 922 463 L 1142 463 L 1142 685 L 922 685 Z M 922 463 " clip-rule="nonzero"/></clipPath><clipPath id="40f4770ec7"><path d="M -148.328125 780.445312 L 721.945312 -89.824219 L 1774.117188 962.347656 L 903.847656 1832.621094 Z M -148.328125 780.445312 " clip-rule="nonzero"/></clipPath><clipPath id="a2504583dd"><path d="M -148.328125 780.445312 L 721.945312 -89.824219 L 1774.117188 962.347656 L 903.847656 1832.621094 Z M -148.328125 780.445312 " clip-rule="nonzero"/></clipPath><clipPath id="56579c89eb"><path d="M 42 306 L 1402 306 L 1402 1433 L 42 1433 Z M 42 306 " clip-rule="nonzero"/></clipPath><clipPath id="713febce51"><path d="M -148.328125 780.445312 L 721.945312 -89.824219 L 1774.117188 962.347656 L 903.847656 1832.621094 Z M -148.328125 780.445312 " clip-rule="nonzero"/></clipPath><clipPath id="562fb9c801"><path d="M -148.328125 780.445312 L 721.945312 -89.824219 L 1774.117188 962.347656 L 903.847656 1832.621094 Z M -148.328125 780.445312 " clip-rule="nonzero"/></clipPath><clipPath id="4ccb16d5d4"><path d="M 42 579 L 1402 579 L 1402 1433 L 42 1433 Z M 42 579 " clip-rule="nonzero"/></clipPath><clipPath id="60404d202a"><path d="M -148.328125 780.445312 L 721.945312 -89.824219 L 1774.117188 962.347656 L 903.847656 1832.621094 Z M -148.328125 780.445312 " clip-rule="nonzero"/></clipPath><clipPath id="06392ac714"><path d="M -148.328125 780.445312 L 721.945312 -89.824219 L 1774.117188 962.347656 L 903.847656 1832.621094 Z M -148.328125 780.445312 " clip-rule="nonzero"/></clipPath><clipPath id="94530d645f"><path d="M 138 738 L 281 738 L 281 880 L 138 880 Z M 138 738 " clip-rule="nonzero"/></clipPath><clipPath id="f6f852a676"><path d="M -148.328125 780.445312 L 721.945312 -89.824219 L 1774.117188 962.347656 L 903.847656 1832.621094 Z M -148.328125 780.445312 " clip-rule="nonzero"/></clipPath><clipPath id="83b690ad8c"><path d="M -148.328125 780.445312 L 721.945312 -89.824219 L 1774.117188 962.347656 L 903.847656 1832.621094 Z M -148.328125 780.445312 " clip-rule="nonzero"/></clipPath><clipPath id="95112d590f"><path d="M 221 569 L 244 569 L 244 592 L 221 592 Z M 221 569 " clip-rule="nonzero"/></clipPath><clipPath id="eb9cd55dc4"><path d="M -148.328125 780.445312 L 721.945312 -89.824219 L 1774.117188 962.347656 L 903.847656 1832.621094 Z M -148.328125 780.445312 " clip-rule="nonzero"/></clipPath><clipPath id="908873cc97"><path d="M -148.328125 780.445312 L 721.945312 -89.824219 L 1774.117188 962.347656 L 903.847656 1832.621094 Z M -148.328125 780.445312 " clip-rule="nonzero"/></clipPath><clipPath id="6555e53976"><path d="M 624 628 L 823 628 L 823 811 L 624 811 Z M 624 628 " clip-rule="nonzero"/></clipPath><clipPath id="c7801f8df3"><path d="M -148.328125 780.445312 L 721.945312 -89.824219 L 1774.117188 962.347656 L 903.847656 1832.621094 Z M -148.328125 780.445312 " clip-rule="nonzero"/></clipPath><clipPath id="506ba5ac63"><path d="M -148.328125 780.445312 L 721.945312 -89.824219 L 1774.117188 962.347656 L 903.847656 1832.621094 Z M -148.328125 780.445312 " clip-rule="nonzero"/></clipPath><clipPath id="87c53fa6d1"><path d="M 612 617 L 834 617 L 834 822 L 612 822 Z M 612 617 " clip-rule="nonzero"/></clipPath><clipPath id="3f6ba602f0"><path d="M -148.328125 780.445312 L 721.945312 -89.824219 L 1774.117188 962.347656 L 903.847656 1832.621094 Z M -148.328125 780.445312 " clip-rule="nonzero"/></clipPath><clipPath id="74d3240776"><path d="M -148.328125 780.445312 L 721.945312 -89.824219 L 1774.117188 962.347656 L 903.847656 1832.621094 Z M -148.328125 780.445312 " clip-rule="nonzero"/></clipPath></defs><g clip-path="url(#309a59fb52)"><g clip-path="url(#8209fd8903)"><g clip-path="url(#8745f4a11d)"><path fill="#ffd700" d="M 500.941406 894.113281 C 500.941406 894.113281 515.398438 1073.941406 534.730469 1075.988281 C 554.058594 1078.035156 699.132812 911.585938 699.132812 911.585938 " fill-opacity="1" fill-rule="nonzero"/></g></g></g><g clip-path="url(#bb2efd27eb)"><g clip-path="url(#16c881558b)"><g clip-path="url(#46c2eec3b6)"><path fill="#ffc138" d="M 489.769531 894.113281 C 491.753906 918.773438 494.351562 943.417969 497.324219 967.972656 C 499.769531 988.125 502.472656 1008.277344 506.097656 1028.261719 C 508.796875 1043.269531 511.667969 1058.660156 517.78125 1072.699219 C 518.726562 1075.265625 520.050781 1077.617188 521.761719 1079.753906 C 523.472656 1081.886719 525.476562 1083.695312 527.773438 1085.179688 C 533.507812 1088.339844 539.515625 1086.972656 544.976562 1084.167969 C 549.816406 1081.445312 554.335938 1078.265625 558.527344 1074.621094 C 563.882812 1070.320312 569.023438 1065.726562 574.0625 1061.027344 C 602.179688 1034.933594 628.273438 1006.605469 654.15625 978.316406 C 671.652344 959.179688 689.164062 939.976562 706.132812 920.3125 L 707.039062 919.40625 C 707.558594 918.886719 708.023438 918.324219 708.429688 917.710938 C 708.835938 917.101562 709.179688 916.457031 709.460938 915.78125 C 709.742188 915.101562 709.953125 914.402344 710.097656 913.683594 C 710.242188 912.960938 710.3125 912.234375 710.3125 911.5 C 710.3125 910.769531 710.242188 910.039062 710.097656 909.320312 C 709.953125 908.601562 709.742188 907.902344 709.460938 907.222656 C 709.179688 906.546875 708.835938 905.902344 708.429688 905.289062 C 708.019531 904.679688 707.558594 904.117188 707.039062 903.597656 C 706.519531 903.078125 705.953125 902.613281 705.34375 902.207031 C 704.734375 901.796875 704.089844 901.453125 703.410156 901.171875 C 702.734375 900.890625 702.035156 900.679688 701.3125 900.535156 C 700.59375 900.394531 699.867188 900.320312 699.132812 900.320312 C 698.398438 900.320312 697.671875 900.394531 696.953125 900.535156 C 696.230469 900.679688 695.53125 900.890625 694.855469 901.171875 C 694.175781 901.453125 693.53125 901.796875 692.921875 902.203125 C 692.3125 902.613281 691.746094 903.074219 691.226562 903.59375 C 677.484375 919.359375 663.53125 934.917969 649.367188 950.515625 C 623.675781 978.863281 597.707031 1007.066406 570.285156 1033.8125 C 564.722656 1039.378906 558.945312 1044.773438 553.066406 1050.0625 C 550.621094 1052.253906 548.113281 1054.425781 545.5625 1056.554688 L 542.421875 1059.148438 L 540.757812 1060.433594 C 539.996094 1061.191406 543.601562 1058.347656 541.050781 1060.136719 C 539.261719 1061.421875 537.488281 1062.6875 535.613281 1063.804688 L 533.398438 1065.007812 C 530.914062 1066.355469 536.394531 1064.164062 533.886719 1064.773438 C 531.375 1065.386719 536.855469 1064.710938 535.042969 1064.710938 C 533.230469 1064.710938 537.890625 1065.195312 537.066406 1065.007812 C 535.339844 1064.585938 540.210938 1066.503906 538.734375 1065.703125 C 537.257812 1064.902344 541.664062 1068.339844 539.492188 1066.207031 C 537.320312 1064.078125 541.15625 1069.054688 539.617188 1066.335938 C 539.15625 1065.492188 538.648438 1064.648438 538.101562 1063.636719 C 537.554688 1062.625 537.59375 1062.582031 537.363281 1062.054688 C 536.246094 1059.671875 537.867188 1063.488281 537.574219 1062.644531 C 536.605469 1059.90625 535.613281 1057.1875 534.769531 1054.402344 C 532.617188 1047.152344 530.972656 1039.730469 529.519531 1032.289062 C 525.808594 1013.953125 523.148438 995.402344 520.722656 976.832031 L 520.554688 975.355469 C 520.890625 978.050781 520.703125 976.554688 520.617188 975.964844 L 520.132812 972.234375 L 519.140625 964.792969 C 518.550781 960.042969 518.003906 955.28125 517.496094 950.5 C 516.546875 942.132812 515.679688 933.765625 514.835938 925.375 C 513.851562 915.367188 512.929688 905.328125 512.074219 895.25 L 511.96875 893.839844 C 511.949219 893.109375 511.859375 892.390625 511.703125 891.675781 C 511.546875 890.964844 511.324219 890.273438 511.035156 889.601562 C 510.746094 888.933594 510.398438 888.296875 509.988281 887.691406 C 509.578125 887.089844 509.117188 886.527344 508.601562 886.011719 C 508.085938 885.496094 507.523438 885.035156 506.921875 884.625 C 506.316406 884.214844 505.679688 883.867188 505.011719 883.578125 C 504.339844 883.289062 503.648438 883.066406 502.9375 882.910156 C 502.222656 882.753906 501.503906 882.664062 500.773438 882.644531 C 500.039062 882.652344 499.316406 882.730469 498.597656 882.878906 C 497.878906 883.023438 497.183594 883.242188 496.507812 883.523438 C 495.832031 883.808594 495.1875 884.152344 494.578125 884.5625 C 493.972656 884.972656 493.40625 885.433594 492.890625 885.953125 C 492.371094 886.472656 491.90625 887.035156 491.5 887.644531 C 491.089844 888.253906 490.742188 888.894531 490.460938 889.570312 C 490.175781 890.246094 489.960938 890.941406 489.8125 891.660156 C 489.664062 892.378906 489.585938 893.105469 489.582031 893.835938 Z M 489.769531 894.113281 " fill-opacity="1" fill-rule="nonzero"/></g></g></g><g clip-path="url(#808e580398)"><g clip-path="url(#a4280d69c3)"><g clip-path="url(#52d41d4ab9)"><path fill="#ffc138" d="M 706.128906 415.5 L 453.714844 350.890625 L 635.867188 164.523438 L 781.765625 15.335938 C 782.675781 14.386719 783.644531 13.503906 784.671875 12.683594 C 785.703125 11.863281 786.78125 11.113281 787.90625 10.4375 C 789.035156 9.761719 790.199219 9.160156 791.40625 8.636719 C 792.613281 8.113281 793.851562 7.671875 795.117188 7.3125 C 796.382812 6.953125 797.664062 6.679688 798.964844 6.492188 C 800.265625 6.300781 801.574219 6.199219 802.890625 6.183594 C 804.207031 6.164062 805.515625 6.234375 806.824219 6.394531 C 808.128906 6.550781 809.417969 6.792969 810.691406 7.121094 C 811.964844 7.449219 813.210938 7.859375 814.433594 8.351562 C 815.652344 8.84375 816.832031 9.417969 817.976562 10.066406 C 819.121094 10.714844 820.21875 11.4375 821.265625 12.230469 C 822.3125 13.023438 823.304688 13.886719 824.242188 14.8125 C 825.175781 15.738281 826.042969 16.71875 826.847656 17.761719 C 827.652344 18.800781 828.386719 19.890625 829.046875 21.027344 C 829.707031 22.164062 830.289062 23.339844 830.792969 24.554688 C 831.300781 25.769531 831.722656 27.011719 832.0625 28.285156 L 888.277344 229.261719 L 958.558594 480.261719 Z M 706.128906 415.5 " fill-opacity="1" fill-rule="nonzero"/></g></g></g><g clip-path="url(#0d9590a401)"><g clip-path="url(#40f4770ec7)"><g clip-path="url(#a2504583dd)"><path fill="#ffc138" d="M 1005.429688 602.632812 L 922.03125 521.214844 L 1034.234375 489.710938 L 1124.136719 464.488281 C 1125.269531 464.167969 1126.421875 464.003906 1127.597656 463.988281 C 1128.773438 463.976562 1129.933594 464.113281 1131.070312 464.402344 C 1132.210938 464.695312 1133.292969 465.128906 1134.316406 465.703125 C 1135.34375 466.28125 1136.273438 466.980469 1137.117188 467.800781 C 1137.957031 468.621094 1138.675781 469.539062 1139.277344 470.550781 C 1139.875 471.5625 1140.335938 472.632812 1140.652344 473.765625 C 1140.96875 474.898438 1141.132812 476.050781 1141.148438 477.226562 C 1141.160156 478.402344 1141.019531 479.5625 1140.730469 480.699219 L 1117.699219 571.191406 L 1088.976562 684.238281 Z M 1005.429688 602.632812 " fill-opacity="1" fill-rule="nonzero"/></g></g></g><g clip-path="url(#56579c89eb)"><g clip-path="url(#713febce51)"><g clip-path="url(#562fb9c801)"><path fill="#ffd700" d="M 886.945312 417.332031 C 653.542969 266 493.277344 313.476562 493.277344 313.476562 C 488.136719 316.007812 294.5 337.785156 135.472656 522.363281 C -23.550781 706.941406 29.128906 957.117188 236.851562 1031.503906 C 439.050781 1103.910156 807.535156 808.410156 912.261719 1076.195312 C 909.40625 1078.878906 906.605469 1081.621094 903.859375 1084.417969 C 901.113281 1087.214844 898.425781 1090.070312 895.796875 1092.976562 C 893.167969 1095.882812 890.597656 1098.84375 888.089844 1101.851562 C 885.578125 1104.863281 883.128906 1107.925781 880.746094 1111.035156 C 878.359375 1114.144531 876.039062 1117.304688 873.78125 1120.507812 C 871.523438 1123.714844 869.332031 1126.960938 867.203125 1130.253906 C 865.078125 1133.550781 863.019531 1136.882812 861.027344 1140.261719 C 859.039062 1143.636719 857.117188 1147.054688 855.265625 1150.507812 C 853.410156 1153.964844 851.628906 1157.453125 849.917969 1160.980469 C 848.207031 1164.507812 846.570312 1168.070312 845.003906 1171.664062 C 843.4375 1175.257812 841.945312 1178.878906 840.523438 1182.535156 C 839.105469 1186.1875 837.757812 1189.871094 836.488281 1193.578125 C 835.21875 1197.285156 834.023438 1201.019531 832.902344 1204.777344 C 831.785156 1208.535156 830.742188 1212.3125 829.777344 1216.109375 C 828.808594 1219.910156 827.921875 1223.726562 827.109375 1227.5625 C 826.296875 1231.398438 825.566406 1235.25 824.910156 1239.113281 C 824.253906 1242.980469 823.675781 1246.855469 823.179688 1250.746094 C 822.679688 1254.632812 822.261719 1258.53125 821.921875 1262.433594 C 821.582031 1266.339844 821.320312 1270.25 821.136719 1274.167969 C 820.957031 1278.085938 820.855469 1282.003906 820.832031 1285.921875 C 820.808594 1289.84375 820.863281 1293.761719 821 1297.679688 C 821.136719 1301.597656 821.351562 1305.511719 821.644531 1309.421875 C 821.941406 1313.332031 822.3125 1317.234375 822.765625 1321.125 C 823.21875 1325.019531 823.75 1328.90625 824.359375 1332.777344 C 824.96875 1336.648438 825.65625 1340.507812 826.425781 1344.355469 C 827.191406 1348.199219 828.035156 1352.027344 828.957031 1355.835938 C 829.878906 1359.648438 830.875 1363.4375 831.949219 1367.207031 C 833.027344 1370.980469 834.175781 1374.726562 835.402344 1378.449219 C 836.628906 1382.171875 837.933594 1385.871094 839.308594 1389.542969 C 840.6875 1393.214844 842.136719 1396.855469 843.660156 1400.46875 C 845.183594 1404.078125 846.78125 1407.660156 848.453125 1411.207031 C 850.121094 1414.753906 851.863281 1418.265625 853.671875 1421.742188 C 854.078125 1422.539062 854.539062 1423.300781 855.054688 1424.035156 C 855.566406 1424.765625 856.128906 1425.457031 856.738281 1426.109375 C 857.351562 1426.761719 858.003906 1427.367188 858.699219 1427.929688 C 859.394531 1428.492188 860.125 1429 860.890625 1429.460938 C 861.65625 1429.917969 862.453125 1430.320312 863.277344 1430.667969 C 864.101562 1431.015625 864.941406 1431.304688 865.804688 1431.535156 C 866.671875 1431.761719 867.546875 1431.929688 868.433594 1432.039062 C 869.320312 1432.144531 870.210938 1432.1875 871.101562 1432.171875 C 871.996094 1432.152344 872.882812 1432.074219 873.765625 1431.929688 C 874.648438 1431.789062 875.515625 1431.585938 876.371094 1431.320312 C 877.222656 1431.058594 878.054688 1430.734375 878.863281 1430.355469 C 879.671875 1429.976562 880.449219 1429.539062 881.195312 1429.050781 C 881.945312 1428.5625 882.652344 1428.023438 883.324219 1427.433594 C 884 1426.847656 884.625 1426.214844 885.210938 1425.535156 C 885.792969 1424.859375 886.328125 1424.144531 886.808594 1423.394531 C 887.292969 1422.644531 887.722656 1421.863281 888.097656 1421.050781 C 890.53125 1415.617188 893.132812 1410.261719 895.894531 1404.988281 C 898.660156 1399.714844 901.585938 1394.53125 904.667969 1389.4375 C 907.753906 1384.347656 910.992188 1379.351562 914.382812 1374.457031 C 917.773438 1369.5625 921.3125 1364.777344 925 1360.101562 C 928.683594 1355.425781 932.511719 1350.867188 936.480469 1346.429688 C 940.445312 1341.988281 944.546875 1337.671875 948.777344 1333.484375 C 953.011719 1329.296875 957.367188 1325.246094 961.851562 1321.324219 C 966.332031 1317.40625 970.933594 1313.628906 975.648438 1309.992188 C 980.363281 1306.355469 985.183594 1302.867188 990.113281 1299.527344 C 995.042969 1296.1875 1000.074219 1293.003906 1005.199219 1289.972656 C 1010.324219 1286.945312 1015.539062 1284.074219 1020.839844 1281.367188 C 1026.144531 1278.660156 1031.523438 1276.117188 1036.984375 1273.738281 C 1042.445312 1271.363281 1047.972656 1269.15625 1053.566406 1267.117188 C 1059.164062 1265.082031 1064.816406 1263.21875 1070.523438 1261.53125 C 1076.234375 1259.839844 1081.992188 1258.328125 1087.796875 1256.996094 C 1093.597656 1255.660156 1099.4375 1254.507812 1105.3125 1253.53125 C 1111.1875 1252.558594 1117.085938 1251.765625 1123.007812 1251.152344 C 1128.929688 1250.542969 1134.867188 1250.113281 1140.816406 1249.867188 C 1146.765625 1249.621094 1152.71875 1249.558594 1158.671875 1249.679688 C 1164.625 1249.800781 1170.570312 1250.105469 1176.503906 1250.589844 C 1182.441406 1251.078125 1188.355469 1251.746094 1194.25 1252.597656 C 1200.144531 1253.449219 1206.003906 1254.480469 1211.835938 1255.691406 C 1217.667969 1256.902344 1223.453125 1258.292969 1229.199219 1259.859375 C 1234.945312 1261.429688 1240.636719 1263.171875 1246.273438 1265.089844 C 1251.910156 1267.007812 1257.484375 1269.101562 1262.992188 1271.363281 C 1268.503906 1273.625 1273.9375 1276.054688 1279.296875 1278.648438 C 1284.65625 1281.246094 1289.929688 1284.003906 1295.121094 1286.925781 C 1300.308594 1289.847656 1305.40625 1292.925781 1310.40625 1296.160156 C 1315.40625 1299.394531 1320.300781 1302.78125 1325.09375 1306.316406 C 1329.882812 1309.851562 1334.5625 1313.53125 1339.128906 1317.355469 C 1343.695312 1321.183594 1348.136719 1325.144531 1352.457031 1329.242188 C 1356.78125 1333.339844 1360.972656 1337.566406 1365.03125 1341.921875 C 1365.644531 1342.570312 1366.296875 1343.171875 1366.996094 1343.726562 C 1367.691406 1344.28125 1368.421875 1344.789062 1369.1875 1345.242188 C 1369.957031 1345.695312 1370.75 1346.09375 1371.570312 1346.4375 C 1372.394531 1346.78125 1373.234375 1347.066406 1374.097656 1347.289062 C 1374.960938 1347.515625 1375.832031 1347.679688 1376.71875 1347.785156 C 1377.601562 1347.886719 1378.492188 1347.929688 1379.382812 1347.90625 C 1380.273438 1347.886719 1381.15625 1347.804688 1382.035156 1347.660156 C 1382.914062 1347.515625 1383.78125 1347.3125 1384.632812 1347.046875 C 1385.480469 1346.78125 1386.308594 1346.460938 1387.117188 1346.078125 C 1387.921875 1345.699219 1388.695312 1345.265625 1389.441406 1344.777344 C 1390.183594 1344.285156 1390.890625 1343.75 1391.5625 1343.160156 C 1392.230469 1342.574219 1392.855469 1341.941406 1393.4375 1341.265625 C 1394.019531 1340.59375 1394.550781 1339.878906 1395.035156 1339.132812 C 1395.515625 1338.382812 1395.941406 1337.601562 1396.316406 1336.792969 C 1396.691406 1335.984375 1397.003906 1335.152344 1397.261719 1334.300781 C 1397.519531 1333.449219 1397.714844 1332.582031 1397.851562 1331.699219 C 1398.433594 1327.921875 1398.941406 1324.132812 1399.371094 1320.332031 C 1399.800781 1316.535156 1400.15625 1312.726562 1400.4375 1308.914062 C 1400.71875 1305.097656 1400.925781 1301.28125 1401.054688 1297.460938 C 1401.183594 1293.636719 1401.234375 1289.816406 1401.214844 1285.992188 C 1401.191406 1282.167969 1401.09375 1278.347656 1400.921875 1274.527344 C 1400.746094 1270.707031 1400.496094 1266.890625 1400.171875 1263.082031 C 1399.847656 1259.269531 1399.449219 1255.46875 1398.972656 1251.671875 C 1398.496094 1247.878906 1397.949219 1244.097656 1397.320312 1240.324219 C 1396.695312 1236.550781 1395.996094 1232.792969 1395.222656 1229.046875 C 1394.449219 1225.300781 1393.601562 1221.574219 1392.679688 1217.863281 C 1391.757812 1214.152344 1390.761719 1210.460938 1389.695312 1206.789062 C 1388.625 1203.117188 1387.484375 1199.464844 1386.273438 1195.839844 C 1385.0625 1192.210938 1383.777344 1188.609375 1382.421875 1185.035156 C 1381.066406 1181.460938 1379.640625 1177.910156 1378.144531 1174.390625 C 1376.648438 1170.871094 1375.085938 1167.382812 1373.449219 1163.925781 C 1371.816406 1160.46875 1370.113281 1157.042969 1368.34375 1153.65625 C 1366.574219 1150.265625 1364.738281 1146.910156 1362.835938 1143.59375 C 1360.933594 1140.277344 1358.96875 1136.996094 1356.933594 1133.757812 C 1354.902344 1130.519531 1352.808594 1127.320312 1350.648438 1124.164062 C 1348.488281 1121.007812 1346.269531 1117.894531 1343.988281 1114.824219 C 1341.703125 1111.757812 1339.363281 1108.734375 1336.960938 1105.757812 C 1334.558594 1102.78125 1332.097656 1099.855469 1329.578125 1096.976562 C 1327.0625 1094.097656 1324.488281 1091.269531 1321.859375 1088.496094 C 1319.226562 1085.71875 1316.542969 1082.996094 1313.808594 1080.324219 C 1311.070312 1077.65625 1308.277344 1075.039062 1305.4375 1072.480469 C 1302.597656 1069.921875 1299.707031 1067.417969 1296.765625 1064.972656 C 1293.824219 1062.527344 1290.835938 1060.140625 1287.800781 1057.816406 C 1284.765625 1055.488281 1281.6875 1053.222656 1278.5625 1051.015625 C 1275.4375 1048.8125 1272.269531 1046.671875 1269.0625 1044.589844 C 1265.851562 1042.511719 1262.601562 1040.496094 1259.3125 1038.546875 C 1256.023438 1036.59375 1252.695312 1034.710938 1249.332031 1032.890625 C 1245.96875 1031.070312 1242.570312 1029.320312 1239.136719 1027.636719 C 1228.230469 955.226562 1161.292969 595.226562 886.945312 417.332031 Z M 886.945312 417.332031 " fill-opacity="1" fill-rule="nonzero"/></g></g></g><g clip-path="url(#4ccb16d5d4)"><g clip-path="url(#60404d202a)"><g clip-path="url(#06392ac714)"><path fill="#fcf1eb" d="M 1239.117188 1027.65625 C 944.816406 913.609375 808.03125 684.632812 477.246094 640.757812 C 470.859375 626.652344 466.492188 607.785156 455.339844 589.636719 C 434.742188 556.390625 439.953125 612.695312 421.996094 622.980469 C 404.039062 633.265625 406.625 599.898438 384.808594 585.792969 C 369.039062 575.503906 346.003906 614.140625 331.019531 636.886719 C 189.21875 649.917969 95.863281 711.863281 42.746094 761.015625 C 43.855469 879.609375 112.5625 987.015625 236.851562 1031.503906 C 439.03125 1103.929688 807.515625 808.433594 912.242188 1076.214844 C 909.386719 1078.898438 906.585938 1081.640625 903.84375 1084.441406 C 901.097656 1087.238281 898.414062 1090.09375 895.785156 1093 C 893.15625 1095.910156 890.585938 1098.867188 888.078125 1101.878906 C 885.570312 1104.890625 883.125 1107.953125 880.738281 1111.066406 C 878.355469 1114.175781 876.035156 1117.332031 873.777344 1120.539062 C 871.519531 1123.742188 869.328125 1126.992188 867.203125 1130.285156 C 865.078125 1133.582031 863.023438 1136.914062 861.03125 1140.292969 C 859.042969 1143.667969 857.121094 1147.085938 855.269531 1150.539062 C 853.417969 1153.996094 851.636719 1157.488281 849.925781 1161.015625 C 848.21875 1164.539062 846.578125 1168.101562 845.011719 1171.695312 C 843.445312 1175.289062 841.953125 1178.910156 840.535156 1182.566406 C 839.117188 1186.21875 837.773438 1189.902344 836.5 1193.609375 C 835.230469 1197.316406 834.035156 1201.050781 832.917969 1204.804688 C 831.800781 1208.5625 830.757812 1212.339844 829.792969 1216.140625 C 828.824219 1219.9375 827.9375 1223.757812 827.125 1227.589844 C 826.3125 1231.425781 825.582031 1235.277344 824.925781 1239.140625 C 824.269531 1243.007812 823.695312 1246.882812 823.195312 1250.769531 C 822.695312 1254.660156 822.277344 1258.554688 821.9375 1262.460938 C 821.597656 1266.367188 821.335938 1270.277344 821.152344 1274.191406 C 820.972656 1278.109375 820.867188 1282.027344 820.84375 1285.945312 C 820.820312 1289.867188 820.878906 1293.785156 821.011719 1297.703125 C 821.148438 1301.621094 821.363281 1305.535156 821.65625 1309.441406 C 821.949219 1313.351562 822.324219 1317.253906 822.777344 1321.148438 C 823.226562 1325.042969 823.757812 1328.925781 824.367188 1332.796875 C 824.976562 1336.667969 825.664062 1340.527344 826.429688 1344.375 C 827.195312 1348.21875 828.039062 1352.046875 828.957031 1355.855469 C 829.878906 1359.667969 830.875 1363.457031 831.949219 1367.226562 C 833.023438 1370.996094 834.171875 1374.746094 835.398438 1378.46875 C 836.625 1382.191406 837.925781 1385.890625 839.300781 1389.5625 C 840.675781 1393.230469 842.125 1396.875 843.648438 1400.484375 C 845.171875 1404.097656 846.765625 1407.679688 848.433594 1411.226562 C 850.101562 1414.773438 851.84375 1418.285156 853.652344 1421.765625 C 854.0625 1422.558594 854.523438 1423.320312 855.039062 1424.050781 C 855.550781 1424.78125 856.117188 1425.472656 856.726562 1426.121094 C 857.339844 1426.773438 857.992188 1427.378906 858.691406 1427.9375 C 859.386719 1428.5 860.117188 1429.007812 860.886719 1429.464844 C 861.652344 1429.921875 862.449219 1430.324219 863.273438 1430.671875 C 864.09375 1431.015625 864.9375 1431.304688 865.800781 1431.53125 C 866.667969 1431.761719 867.542969 1431.929688 868.429688 1432.035156 C 869.316406 1432.140625 870.207031 1432.183594 871.097656 1432.164062 C 871.992188 1432.148438 872.878906 1432.066406 873.761719 1431.921875 C 874.644531 1431.78125 875.511719 1431.578125 876.363281 1431.3125 C 877.21875 1431.050781 878.046875 1430.726562 878.855469 1430.347656 C 879.664062 1429.96875 880.441406 1429.535156 881.191406 1429.042969 C 881.9375 1428.554688 882.648438 1428.015625 883.320312 1427.429688 C 883.992188 1426.839844 884.621094 1426.207031 885.203125 1425.53125 C 885.789062 1424.855469 886.324219 1424.144531 886.808594 1423.394531 C 887.292969 1422.640625 887.722656 1421.863281 888.097656 1421.050781 C 890.53125 1415.617188 893.132812 1410.261719 895.894531 1404.988281 C 898.660156 1399.714844 901.585938 1394.53125 904.667969 1389.4375 C 907.753906 1384.347656 910.992188 1379.351562 914.382812 1374.457031 C 917.773438 1369.5625 921.3125 1364.777344 925 1360.101562 C 928.683594 1355.425781 932.511719 1350.867188 936.480469 1346.429688 C 940.445312 1341.988281 944.546875 1337.671875 948.777344 1333.484375 C 953.011719 1329.296875 957.367188 1325.246094 961.851562 1321.324219 C 966.332031 1317.40625 970.933594 1313.628906 975.648438 1309.992188 C 980.363281 1306.355469 985.183594 1302.867188 990.113281 1299.527344 C 995.042969 1296.1875 1000.074219 1293.003906 1005.199219 1289.972656 C 1010.324219 1286.945312 1015.539062 1284.074219 1020.839844 1281.367188 C 1026.144531 1278.660156 1031.523438 1276.117188 1036.984375 1273.738281 C 1042.445312 1271.359375 1047.972656 1269.15625 1053.566406 1267.117188 C 1059.164062 1265.082031 1064.816406 1263.21875 1070.523438 1261.53125 C 1076.234375 1259.839844 1081.992188 1258.328125 1087.796875 1256.996094 C 1093.597656 1255.660156 1099.4375 1254.507812 1105.3125 1253.53125 C 1111.1875 1252.558594 1117.085938 1251.765625 1123.007812 1251.152344 C 1128.929688 1250.542969 1134.867188 1250.113281 1140.816406 1249.867188 C 1146.765625 1249.621094 1152.71875 1249.558594 1158.671875 1249.679688 C 1164.625 1249.800781 1170.570312 1250.105469 1176.503906 1250.589844 C 1182.441406 1251.078125 1188.355469 1251.746094 1194.25 1252.597656 C 1200.144531 1253.449219 1206.003906 1254.480469 1211.835938 1255.691406 C 1217.667969 1256.902344 1223.453125 1258.292969 1229.199219 1259.859375 C 1234.945312 1261.429688 1240.636719 1263.171875 1246.273438 1265.089844 C 1251.910156 1267.007812 1257.484375 1269.101562 1262.992188 1271.363281 C 1268.503906 1273.625 1273.9375 1276.054688 1279.296875 1278.648438 C 1284.65625 1281.246094 1289.929688 1284.003906 1295.121094 1286.925781 C 1300.308594 1289.847656 1305.40625 1292.925781 1310.40625 1296.160156 C 1315.40625 1299.394531 1320.300781 1302.78125 1325.09375 1306.316406 C 1329.882812 1309.851562 1334.5625 1313.53125 1339.128906 1317.355469 C 1343.695312 1321.183594 1348.136719 1325.144531 1352.457031 1329.242188 C 1356.78125 1333.339844 1360.972656 1337.566406 1365.03125 1341.921875 C 1365.644531 1342.570312 1366.296875 1343.171875 1366.996094 1343.726562 C 1367.691406 1344.28125 1368.421875 1344.789062 1369.1875 1345.242188 C 1369.957031 1345.695312 1370.75 1346.09375 1371.570312 1346.4375 C 1372.394531 1346.78125 1373.234375 1347.066406 1374.097656 1347.289062 C 1374.960938 1347.515625 1375.832031 1347.679688 1376.71875 1347.785156 C 1377.601562 1347.886719 1378.492188 1347.929688 1379.382812 1347.90625 C 1380.273438 1347.886719 1381.15625 1347.804688 1382.035156 1347.660156 C 1382.914062 1347.515625 1383.78125 1347.3125 1384.632812 1347.046875 C 1385.480469 1346.78125 1386.308594 1346.460938 1387.117188 1346.078125 C 1387.921875 1345.699219 1388.695312 1345.265625 1389.441406 1344.777344 C 1390.183594 1344.285156 1390.890625 1343.75 1391.5625 1343.160156 C 1392.230469 1342.574219 1392.855469 1341.941406 1393.4375 1341.265625 C 1394.019531 1340.59375 1394.550781 1339.878906 1395.035156 1339.132812 C 1395.515625 1338.382812 1395.941406 1337.601562 1396.316406 1336.792969 C 1396.691406 1335.984375 1397.003906 1335.152344 1397.261719 1334.300781 C 1397.519531 1333.449219 1397.714844 1332.582031 1397.851562 1331.699219 C 1398.433594 1327.921875 1398.9375 1324.132812 1399.367188 1320.332031 C 1399.796875 1316.535156 1400.152344 1312.726562 1400.429688 1308.914062 C 1400.710938 1305.101562 1400.914062 1301.285156 1401.042969 1297.460938 C 1401.171875 1293.640625 1401.222656 1289.816406 1401.199219 1285.996094 C 1401.175781 1282.171875 1401.078125 1278.347656 1400.902344 1274.53125 C 1400.730469 1270.710938 1400.480469 1266.894531 1400.152344 1263.085938 C 1399.828125 1259.277344 1399.425781 1255.472656 1398.949219 1251.679688 C 1398.476562 1247.886719 1397.921875 1244.101562 1397.296875 1240.332031 C 1396.671875 1236.558594 1395.972656 1232.800781 1395.195312 1229.054688 C 1394.421875 1225.3125 1393.574219 1221.582031 1392.652344 1217.871094 C 1391.730469 1214.160156 1390.734375 1210.46875 1389.664062 1206.796875 C 1388.597656 1203.128906 1387.457031 1199.476562 1386.242188 1195.851562 C 1385.03125 1192.226562 1383.746094 1188.625 1382.390625 1185.046875 C 1381.035156 1181.472656 1379.609375 1177.925781 1378.113281 1174.40625 C 1376.617188 1170.886719 1375.050781 1167.398438 1373.417969 1163.941406 C 1371.78125 1160.484375 1370.082031 1157.0625 1368.3125 1153.671875 C 1366.539062 1150.28125 1364.703125 1146.929688 1362.800781 1143.613281 C 1360.898438 1140.292969 1358.933594 1137.015625 1356.898438 1133.777344 C 1354.867188 1130.539062 1352.773438 1127.339844 1350.613281 1124.183594 C 1348.453125 1121.027344 1346.234375 1117.914062 1343.953125 1114.847656 C 1341.667969 1111.777344 1339.328125 1108.757812 1336.925781 1105.78125 C 1334.523438 1102.804688 1332.0625 1099.878906 1329.546875 1097 C 1327.027344 1094.121094 1324.453125 1091.296875 1321.824219 1088.519531 C 1319.195312 1085.742188 1316.511719 1083.019531 1313.773438 1080.347656 C 1311.039062 1077.679688 1308.246094 1075.0625 1305.40625 1072.503906 C 1302.566406 1069.945312 1299.675781 1067.441406 1296.734375 1064.996094 C 1293.796875 1062.550781 1290.808594 1060.167969 1287.773438 1057.839844 C 1284.738281 1055.511719 1281.660156 1053.246094 1278.535156 1051.042969 C 1275.410156 1048.835938 1272.246094 1046.695312 1269.035156 1044.613281 C 1265.828125 1042.535156 1262.578125 1040.519531 1259.289062 1038.570312 C 1256 1036.617188 1252.671875 1034.734375 1249.308594 1032.914062 C 1245.945312 1031.09375 1242.546875 1029.34375 1239.117188 1027.65625 Z M 1239.117188 1027.65625 " fill-opacity="1" fill-rule="nonzero"/></g></g></g><g clip-path="url(#94530d645f)"><g clip-path="url(#f6f852a676)"><g clip-path="url(#83b690ad8c)"><path fill="#ffa4ba" d="M 144.125 845.953125 C 143.621094 846.453125 143.148438 846.984375 142.707031 847.539062 C 142.265625 848.097656 141.863281 848.679688 141.492188 849.289062 C 141.121094 849.894531 140.792969 850.523438 140.496094 851.167969 C 140.203125 851.816406 139.953125 852.480469 139.738281 853.15625 C 139.527344 853.835938 139.355469 854.523438 139.226562 855.222656 C 139.097656 855.921875 139.011719 856.625 138.96875 857.335938 C 138.925781 858.046875 138.929688 858.753906 138.972656 859.464844 C 139.015625 860.175781 139.101562 860.878906 139.230469 861.578125 C 139.359375 862.277344 139.53125 862.964844 139.746094 863.644531 C 139.960938 864.320312 140.214844 864.984375 140.507812 865.628906 C 140.800781 866.277344 141.132812 866.90625 141.503906 867.511719 C 141.875 868.117188 142.28125 868.699219 142.722656 869.257812 C 143.164062 869.8125 143.636719 870.34375 144.144531 870.84375 C 144.648438 871.339844 145.183594 871.808594 145.746094 872.242188 C 146.308594 872.675781 146.894531 873.074219 147.507812 873.4375 C 148.117188 873.800781 148.75 874.125 149.398438 874.414062 C 179.460938 887.019531 219.679688 877.582031 248.953125 848.304688 C 278.230469 819.027344 287.691406 778.789062 275.085938 748.726562 C 274.796875 748.074219 274.472656 747.445312 274.109375 746.832031 C 273.746094 746.222656 273.347656 745.632812 272.914062 745.070312 C 272.476562 744.507812 272.011719 743.972656 271.511719 743.464844 C 271.011719 742.960938 270.480469 742.488281 269.921875 742.046875 C 269.363281 741.605469 268.78125 741.199219 268.175781 740.828125 C 267.566406 740.457031 266.941406 740.125 266.292969 739.832031 C 265.644531 739.535156 264.980469 739.28125 264.300781 739.070312 C 263.625 738.855469 262.933594 738.6875 262.234375 738.558594 C 261.535156 738.429688 260.828125 738.34375 260.121094 738.296875 C 259.410156 738.253906 258.699219 738.257812 257.988281 738.300781 C 257.28125 738.34375 256.574219 738.429688 255.875 738.558594 C 255.175781 738.6875 254.488281 738.859375 253.808594 739.074219 C 253.128906 739.289062 252.464844 739.542969 251.820312 739.835938 C 251.171875 740.128906 250.542969 740.464844 249.9375 740.832031 C 249.332031 741.203125 248.746094 741.609375 248.191406 742.054688 C 247.632812 742.496094 247.105469 742.96875 246.605469 743.476562 Z M 144.125 845.953125 " fill-opacity="1" fill-rule="nonzero"/></g></g></g><g clip-path="url(#95112d590f)"><g clip-path="url(#eb9cd55dc4)"><g clip-path="url(#908873cc97)"><path fill="#703e23" d="M 240.433594 572.519531 C 240.949219 573.035156 241.410156 573.597656 241.8125 574.203125 C 242.21875 574.808594 242.558594 575.445312 242.839844 576.117188 C 243.117188 576.792969 243.328125 577.484375 243.46875 578.199219 C 243.613281 578.914062 243.683594 579.632812 243.683594 580.363281 C 243.683594 581.089844 243.613281 581.8125 243.46875 582.527344 C 243.328125 583.242188 243.117188 583.933594 242.839844 584.605469 C 242.558594 585.277344 242.21875 585.917969 241.8125 586.523438 C 241.410156 587.128906 240.949219 587.6875 240.433594 588.203125 C 239.921875 588.71875 239.359375 589.179688 238.753906 589.582031 C 238.148438 589.988281 237.511719 590.328125 236.835938 590.609375 C 236.164062 590.886719 235.472656 591.097656 234.757812 591.238281 C 234.042969 591.378906 233.320312 591.453125 232.59375 591.453125 C 231.867188 591.453125 231.144531 591.378906 230.429688 591.238281 C 229.714844 591.097656 229.023438 590.886719 228.351562 590.605469 C 227.675781 590.328125 227.039062 589.988281 226.433594 589.582031 C 225.828125 589.175781 225.265625 588.71875 224.753906 588.203125 C 224.238281 587.6875 223.777344 587.128906 223.371094 586.523438 C 222.96875 585.917969 222.625 585.277344 222.347656 584.605469 C 222.070312 583.933594 221.859375 583.238281 221.714844 582.523438 C 221.574219 581.808594 221.503906 581.089844 221.503906 580.359375 C 221.503906 579.632812 221.574219 578.910156 221.714844 578.195312 C 221.859375 577.484375 222.070312 576.789062 222.347656 576.117188 C 222.625 575.445312 222.96875 574.804688 223.371094 574.199219 C 223.777344 573.59375 224.234375 573.035156 224.75 572.519531 C 225.265625 572.003906 225.824219 571.542969 226.429688 571.140625 C 227.035156 570.734375 227.675781 570.394531 228.347656 570.117188 C 229.019531 569.835938 229.714844 569.625 230.429688 569.484375 C 231.144531 569.34375 231.863281 569.273438 232.59375 569.273438 C 233.320312 569.273438 234.042969 569.34375 234.753906 569.484375 C 235.46875 569.628906 236.164062 569.835938 236.835938 570.117188 C 237.507812 570.394531 238.148438 570.738281 238.753906 571.140625 C 239.359375 571.546875 239.917969 572.007812 240.433594 572.519531 Z M 240.433594 572.519531 " fill-opacity="1" fill-rule="nonzero"/></g></g></g><g clip-path="url(#6555e53976)"><g clip-path="url(#c7801f8df3)"><g clip-path="url(#506ba5ac63)"><path fill="#ffd700" d="M 624.085938 628.710938 C 624.085938 628.710938 638.519531 808.5625 657.746094 810.503906 C 676.96875 812.445312 822.148438 646.101562 822.148438 646.101562 " fill-opacity="1" fill-rule="nonzero"/></g></g></g><g clip-path="url(#87c53fa6d1)"><g clip-path="url(#3f6ba602f0)"><g clip-path="url(#74d3240776)"><path fill="#ffc138" d="M 612.890625 628.734375 C 614.875 653.394531 617.472656 678.039062 620.445312 702.597656 C 622.914062 722.769531 625.59375 742.898438 629.21875 762.882812 C 631.917969 777.894531 634.789062 793.28125 640.902344 807.320312 C 641.847656 809.886719 643.175781 812.238281 644.882812 814.371094 C 646.59375 816.507812 648.597656 818.316406 650.894531 819.800781 C 656.628906 822.964844 662.636719 821.59375 668.117188 818.8125 C 672.945312 816.070312 677.453125 812.878906 681.648438 809.242188 C 687.003906 804.941406 692.144531 800.347656 697.183594 795.648438 C 725.320312 769.574219 751.5 741.332031 777.277344 712.941406 C 794.792969 693.78125 812.285156 674.597656 829.253906 654.933594 L 830.160156 654.027344 C 830.667969 653.5 831.121094 652.933594 831.515625 652.320312 C 831.914062 651.707031 832.25 651.0625 832.523438 650.386719 C 832.796875 649.707031 833.003906 649.011719 833.140625 648.292969 C 833.28125 647.578125 833.351562 646.851562 833.351562 646.125 C 833.351562 645.394531 833.28125 644.667969 833.140625 643.953125 C 833 643.234375 832.796875 642.539062 832.523438 641.859375 C 832.25 641.183594 831.914062 640.539062 831.515625 639.925781 C 831.117188 639.3125 830.664062 638.742188 830.160156 638.21875 C 825.964844 634.359375 818.480469 633.496094 814.347656 638.214844 C 800.605469 653.984375 786.652344 669.539062 772.488281 685.136719 C 746.796875 713.484375 720.828125 741.6875 693.40625 768.433594 C 687.84375 774 682.066406 779.394531 676.207031 784.664062 C 673.734375 786.882812 671.226562 789.054688 668.683594 791.175781 L 665.542969 793.769531 L 663.878906 795.054688 C 663.117188 795.8125 666.722656 792.96875 664.171875 794.757812 C 662.402344 796.023438 660.609375 797.308594 658.734375 798.425781 L 656.523438 799.628906 C 654.035156 800.976562 659.515625 798.785156 657.007812 799.394531 C 654.496094 800.007812 659.980469 799.332031 658.164062 799.332031 C 656.351562 799.332031 661.011719 799.816406 660.1875 799.628906 C 658.460938 799.207031 663.332031 801.125 661.855469 800.324219 C 660.378906 799.523438 664.804688 802.9375 662.632812 800.808594 C 660.464844 798.679688 664.277344 803.675781 662.761719 800.933594 C 662.296875 800.09375 661.792969 799.25 661.347656 798.34375 C 660.90625 797.4375 660.863281 797.308594 660.609375 796.761719 C 659.492188 794.378906 661.117188 798.195312 660.820312 797.351562 C 659.851562 794.613281 658.859375 791.890625 658.015625 789.109375 C 655.886719 781.835938 654.222656 774.4375 652.765625 766.996094 C 649.054688 748.65625 646.398438 730.105469 643.992188 711.558594 C 643.90625 711.050781 643.84375 710.566406 643.800781 710.058594 C 644.140625 712.757812 643.949219 711.261719 643.867188 710.671875 L 643.378906 706.941406 L 642.496094 699.605469 C 641.902344 694.828125 641.355469 690.0625 640.847656 685.3125 C 639.898438 676.945312 639.035156 668.574219 638.191406 660.1875 C 637.191406 650.164062 636.269531 640.125 635.425781 630.0625 L 635.320312 628.652344 C 635.300781 627.921875 635.210938 627.199219 635.054688 626.488281 C 634.898438 625.777344 634.675781 625.085938 634.386719 624.414062 C 634.101562 623.742188 633.75 623.105469 633.339844 622.503906 C 632.933594 621.898438 632.46875 621.339844 631.953125 620.824219 C 631.4375 620.308594 630.878906 619.84375 630.273438 619.433594 C 629.671875 619.027344 629.035156 618.675781 628.363281 618.390625 C 627.691406 618.101562 627 617.878906 626.289062 617.722656 C 625.578125 617.5625 624.855469 617.476562 624.125 617.457031 C 623.394531 617.464844 622.667969 617.539062 621.949219 617.6875 C 621.230469 617.835938 620.535156 618.050781 619.859375 618.335938 C 619.183594 618.621094 618.539062 618.964844 617.933594 619.375 C 617.324219 619.78125 616.761719 620.246094 616.242188 620.765625 C 615.722656 621.28125 615.261719 621.847656 614.851562 622.453125 C 614.441406 623.0625 614.097656 623.707031 613.8125 624.382812 C 613.53125 625.058594 613.3125 625.753906 613.167969 626.472656 C 613.019531 627.191406 612.941406 627.914062 612.933594 628.648438 Z M 612.890625 628.734375 " fill-opacity="1" fill-rule="nonzero"/></g></g></g></svg>