<svg xmlns="http://www.w3.org/2000/svg" xmlns:xlink="http://www.w3.org/1999/xlink" width="1920" zoomAndPan="magnify" viewBox="0 0 1440 1439.999935" height="1920" preserveAspectRatio="xMidYMid meet" version="1.0"><defs><clipPath id="cca0df857b"><path d="M 892 490 L 1075 490 L 1075 689 L 892 689 Z M 892 490 " clip-rule="nonzero"/></clipPath><clipPath id="16e5dae832"><path d="M -91.667969 711.527344 L 778.601562 -158.742188 L 1830.777344 893.433594 L 960.503906 1763.703125 Z M -91.667969 711.527344 " clip-rule="nonzero"/></clipPath><clipPath id="1800511ecd"><path d="M 778.757812 -158.902344 L -91.511719 711.371094 L 960.664062 1763.546875 L 1830.933594 893.273438 Z M 778.757812 -158.902344 " clip-rule="nonzero"/></clipPath><clipPath id="8a1bf69bb9"><path d="M 880 479 L 1086 479 L 1086 700 L 880 700 Z M 880 479 " clip-rule="nonzero"/></clipPath><clipPath id="1ee1cbaf45"><path d="M -91.667969 711.527344 L 778.601562 -158.742188 L 1830.777344 893.433594 L 960.503906 1763.703125 Z M -91.667969 711.527344 " clip-rule="nonzero"/></clipPath><clipPath id="67673dd0e3"><path d="M 778.757812 -158.902344 L -91.511719 711.371094 L 960.664062 1763.546875 L 1830.933594 893.273438 Z M 778.757812 -158.902344 " clip-rule="nonzero"/></clipPath><clipPath id="5f63eb669a"><path d="M 4 443 L 479 443 L 479 948 L 4 948 Z M 4 443 " clip-rule="nonzero"/></clipPath><clipPath id="b9fd0faa8a"><path d="M -91.667969 711.527344 L 778.601562 -158.742188 L 1830.777344 893.433594 L 960.503906 1763.703125 Z M -91.667969 711.527344 " clip-rule="nonzero"/></clipPath><clipPath id="6c4554517e"><path d="M 778.757812 -158.902344 L -91.511719 711.371094 L 960.664062 1763.546875 L 1830.933594 893.273438 Z M 778.757812 -158.902344 " clip-rule="nonzero"/></clipPath><clipPath id="3ca0281179"><path d="M 462 911 L 683 911 L 683 1131 L 462 1131 Z M 462 911 " clip-rule="nonzero"/></clipPath><clipPath id="02aad7b216"><path d="M -91.667969 711.527344 L 778.601562 -158.742188 L 1830.777344 893.433594 L 960.503906 1763.703125 Z M -91.667969 711.527344 " clip-rule="nonzero"/></clipPath><clipPath id="1396c72147"><path d="M 778.757812 -158.902344 L -91.511719 711.371094 L 960.664062 1763.546875 L 1830.933594 893.273438 Z M 778.757812 -158.902344 " clip-rule="nonzero"/></clipPath><clipPath id="30faded065"><path d="M 304 32 L 1431 32 L 1431 1391 L 304 1391 Z M 304 32 " clip-rule="nonzero"/></clipPath><clipPath id="99dd5547c2"><path d="M -91.667969 711.527344 L 778.601562 -158.742188 L 1830.777344 893.433594 L 960.503906 1763.703125 Z M -91.667969 711.527344 " clip-rule="nonzero"/></clipPath><clipPath id="da87ab171e"><path d="M 778.757812 -158.902344 L -91.511719 711.371094 L 960.664062 1763.546875 L 1830.933594 893.273438 Z M 778.757812 -158.902344 " clip-rule="nonzero"/></clipPath><clipPath id="172cea9691"><path d="M 577 32 L 1431 32 L 1431 1391 L 577 1391 Z M 577 32 " clip-rule="nonzero"/></clipPath><clipPath id="27774f3f78"><path d="M -91.667969 711.527344 L 778.601562 -158.742188 L 1830.777344 893.433594 L 960.503906 1763.703125 Z M -91.667969 711.527344 " clip-rule="nonzero"/></clipPath><clipPath id="114dce7e09"><path d="M 778.757812 -158.902344 L -91.511719 711.371094 L 960.664062 1763.546875 L 1830.933594 893.273438 Z M 778.757812 -158.902344 " clip-rule="nonzero"/></clipPath><clipPath id="45942578a8"><path d="M 736 128 L 879 128 L 879 270 L 736 270 Z M 736 128 " clip-rule="nonzero"/></clipPath><clipPath id="49e02f2522"><path d="M -91.667969 711.527344 L 778.601562 -158.742188 L 1830.777344 893.433594 L 960.503906 1763.703125 Z M -91.667969 711.527344 " clip-rule="nonzero"/></clipPath><clipPath id="2a3453261e"><path d="M 778.757812 -158.902344 L -91.511719 711.371094 L 960.664062 1763.546875 L 1830.933594 893.273438 Z M 778.757812 -158.902344 " clip-rule="nonzero"/></clipPath><clipPath id="62ed3ce56f"><path d="M 567 210 L 590 210 L 590 234 L 567 234 Z M 567 210 " clip-rule="nonzero"/></clipPath><clipPath id="4f468a65ca"><path d="M -91.667969 711.527344 L 778.601562 -158.742188 L 1830.777344 893.433594 L 960.503906 1763.703125 Z M -91.667969 711.527344 " clip-rule="nonzero"/></clipPath><clipPath id="f8215578db"><path d="M 778.757812 -158.902344 L -91.511719 711.371094 L 960.664062 1763.546875 L 1830.933594 893.273438 Z M 778.757812 -158.902344 " clip-rule="nonzero"/></clipPath><clipPath id="22e014e517"><path d="M 627 613 L 809 613 L 809 812 L 627 812 Z M 627 613 " clip-rule="nonzero"/></clipPath><clipPath id="afd69b3717"><path d="M -91.667969 711.527344 L 778.601562 -158.742188 L 1830.777344 893.433594 L 960.503906 1763.703125 Z M -91.667969 711.527344 " clip-rule="nonzero"/></clipPath><clipPath id="09588bbb95"><path d="M 778.757812 -158.902344 L -91.511719 711.371094 L 960.664062 1763.546875 L 1830.933594 893.273438 Z M 778.757812 -158.902344 " clip-rule="nonzero"/></clipPath><clipPath id="b37072071e"><path d="M 615 602 L 820 602 L 820 823 L 615 823 Z M 615 602 " clip-rule="nonzero"/></clipPath><clipPath id="c4fdaa6d5f"><path d="M -91.667969 711.527344 L 778.601562 -158.742188 L 1830.777344 893.433594 L 960.503906 1763.703125 Z M -91.667969 711.527344 " clip-rule="nonzero"/></clipPath><clipPath id="90c15ecb1d"><path d="M 778.757812 -158.902344 L -91.511719 711.371094 L 960.664062 1763.546875 L 1830.933594 893.273438 Z M 778.757812 -158.902344 " clip-rule="nonzero"/></clipPath></defs><g clip-path="url(#cca0df857b)"><g clip-path="url(#16e5dae832)"><g clip-path="url(#1800511ecd)"><path fill="#ffd700" d="M 892.425781 490.371094 C 892.425781 490.371094 1072.257812 504.828125 1074.304688 524.15625 C 1076.351562 543.488281 909.898438 688.5625 909.898438 688.5625 " fill-opacity="1" fill-rule="nonzero"/></g></g></g><g clip-path="url(#8a1bf69bb9)"><g clip-path="url(#1ee1cbaf45)"><g clip-path="url(#67673dd0e3)"><path fill="#ffc138" d="M 892.425781 479.199219 C 917.089844 481.183594 941.730469 483.777344 966.289062 486.75 C 986.441406 489.199219 1006.59375 491.898438 1026.578125 495.527344 C 1041.585938 498.226562 1056.972656 501.09375 1071.011719 507.207031 C 1073.582031 508.152344 1075.929688 509.480469 1078.066406 511.1875 C 1080.203125 512.898438 1082.011719 514.902344 1083.492188 517.203125 C 1086.65625 522.933594 1085.285156 528.941406 1082.484375 534.402344 C 1079.761719 539.242188 1076.578125 543.761719 1072.933594 547.957031 C 1068.636719 553.308594 1064.039062 558.453125 1059.339844 563.488281 C 1033.246094 591.605469 1004.917969 617.699219 976.632812 643.582031 C 957.492188 661.078125 938.292969 678.59375 918.625 695.558594 L 917.71875 696.464844 C 917.203125 696.984375 916.636719 697.449219 916.027344 697.855469 C 915.417969 698.265625 914.773438 698.609375 914.09375 698.890625 C 913.414062 699.171875 912.714844 699.382812 911.996094 699.523438 C 911.277344 699.667969 910.550781 699.738281 909.816406 699.738281 C 909.082031 699.738281 908.355469 699.667969 907.636719 699.523438 C 906.914062 699.382812 906.214844 699.167969 905.539062 698.886719 C 904.859375 698.609375 904.214844 698.261719 903.605469 697.855469 C 902.996094 697.449219 902.429688 696.984375 901.910156 696.464844 C 901.390625 695.945312 900.929688 695.382812 900.519531 694.769531 C 900.113281 694.160156 899.769531 693.515625 899.488281 692.835938 C 899.207031 692.160156 898.992188 691.460938 898.851562 690.742188 C 898.707031 690.019531 898.636719 689.292969 898.636719 688.558594 C 898.636719 687.824219 898.707031 687.097656 898.851562 686.378906 C 898.992188 685.660156 899.207031 684.960938 899.484375 684.28125 C 899.765625 683.605469 900.113281 682.960938 900.519531 682.347656 C 900.925781 681.738281 901.390625 681.175781 901.910156 680.65625 C 917.675781 666.914062 933.230469 652.960938 948.828125 638.796875 C 977.175781 613.101562 1005.378906 587.136719 1032.125 559.714844 C 1037.691406 554.148438 1043.085938 548.375 1048.378906 542.492188 C 1050.570312 540.046875 1052.742188 537.539062 1054.867188 534.988281 L 1057.460938 531.847656 L 1058.746094 530.183594 C 1059.507812 529.425781 1056.660156 533.03125 1058.453125 530.480469 C 1059.738281 528.6875 1061.003906 526.917969 1062.121094 525.039062 L 1063.320312 522.828125 C 1064.667969 520.339844 1062.476562 525.820312 1063.089844 523.3125 C 1063.699219 520.804688 1063.027344 526.285156 1063.027344 524.472656 C 1063.027344 522.660156 1063.511719 527.316406 1063.320312 526.496094 C 1062.898438 524.765625 1064.816406 529.636719 1064.015625 528.160156 C 1063.214844 526.683594 1066.652344 531.089844 1064.523438 528.917969 C 1062.394531 526.75 1067.367188 530.585938 1064.648438 529.046875 C 1063.804688 528.582031 1062.960938 528.078125 1061.949219 527.527344 C 1060.9375 526.980469 1060.898438 527.023438 1060.371094 526.789062 C 1057.988281 525.671875 1061.804688 527.296875 1060.960938 527 C 1058.21875 526.03125 1055.5 525.039062 1052.71875 524.195312 C 1045.464844 522.046875 1038.046875 520.402344 1030.605469 518.945312 C 1012.265625 515.234375 993.714844 512.578125 975.144531 510.152344 L 973.667969 509.980469 C 976.367188 510.320312 974.871094 510.128906 974.28125 510.042969 L 970.546875 509.558594 L 963.109375 508.566406 C 958.359375 507.976562 953.59375 507.429688 948.816406 506.921875 C 940.445312 505.972656 932.078125 505.109375 923.6875 504.265625 C 913.683594 503.28125 903.640625 502.359375 893.566406 501.5 L 892.152344 501.394531 C 891.425781 501.375 890.703125 501.285156 889.992188 501.128906 C 889.277344 500.972656 888.585938 500.75 887.917969 500.460938 C 887.246094 500.175781 886.609375 499.824219 886.003906 499.414062 C 885.402344 499.007812 884.84375 498.542969 884.328125 498.027344 C 883.808594 497.511719 883.347656 496.953125 882.9375 496.347656 C 882.527344 495.742188 882.179688 495.105469 881.890625 494.4375 C 881.601562 493.765625 881.382812 493.074219 881.222656 492.363281 C 881.066406 491.652344 880.980469 490.929688 880.960938 490.199219 C 880.964844 489.46875 881.042969 488.742188 881.191406 488.023438 C 881.339844 487.304688 881.554688 486.609375 881.839844 485.933594 C 882.121094 485.257812 882.46875 484.613281 882.875 484.007812 C 883.285156 483.398438 883.75 482.835938 884.265625 482.316406 C 884.785156 481.796875 885.347656 481.335938 885.957031 480.925781 C 886.566406 480.515625 887.207031 480.171875 887.882812 479.886719 C 888.558594 479.605469 889.257812 479.386719 889.976562 479.238281 C 890.691406 479.09375 891.417969 479.015625 892.152344 479.007812 Z M 892.425781 479.199219 " fill-opacity="1" fill-rule="nonzero"/></g></g></g><g clip-path="url(#5f63eb669a)"><g clip-path="url(#b9fd0faa8a)"><g clip-path="url(#6c4554517e)"><path fill="#ffc138" d="M 413.816406 695.554688 L 349.203125 443.144531 L 162.835938 625.292969 L 13.652344 771.191406 C 12.703125 772.101562 11.816406 773.074219 10.996094 774.101562 C 10.179688 775.128906 9.429688 776.207031 8.75 777.332031 C 8.074219 778.460938 7.472656 779.628906 6.949219 780.835938 C 6.429688 782.042969 5.988281 783.277344 5.628906 784.542969 C 5.269531 785.808594 4.992188 787.089844 4.804688 788.394531 C 4.613281 789.695312 4.511719 791.003906 4.496094 792.316406 C 4.480469 793.632812 4.550781 794.945312 4.707031 796.25 C 4.863281 797.554688 5.105469 798.84375 5.433594 800.121094 C 5.761719 801.394531 6.171875 802.640625 6.667969 803.859375 C 7.160156 805.078125 7.730469 806.261719 8.378906 807.40625 C 9.027344 808.546875 9.75 809.644531 10.546875 810.691406 C 11.339844 811.742188 12.199219 812.734375 13.125 813.667969 C 14.050781 814.601562 15.035156 815.472656 16.074219 816.277344 C 17.113281 817.082031 18.203125 817.8125 19.34375 818.472656 C 20.480469 819.132812 21.65625 819.714844 22.871094 820.222656 C 24.085938 820.726562 25.328125 821.148438 26.597656 821.488281 L 227.574219 877.707031 L 478.574219 947.988281 Z M 413.816406 695.554688 " fill-opacity="1" fill-rule="nonzero"/></g></g></g><g clip-path="url(#3ca0281179)"><g clip-path="url(#02aad7b216)"><g clip-path="url(#1396c72147)"><path fill="#ffc138" d="M 600.945312 994.859375 L 519.527344 911.460938 L 488.027344 1023.664062 L 462.800781 1113.566406 C 462.484375 1114.695312 462.316406 1115.851562 462.304688 1117.027344 C 462.289062 1118.203125 462.425781 1119.359375 462.71875 1120.496094 C 463.007812 1121.636719 463.441406 1122.71875 464.019531 1123.746094 C 464.59375 1124.769531 465.292969 1125.703125 466.113281 1126.542969 C 466.9375 1127.382812 467.851562 1128.105469 468.863281 1128.703125 C 469.875 1129.304688 470.949219 1129.761719 472.078125 1130.078125 C 473.210938 1130.394531 474.367188 1130.5625 475.542969 1130.574219 C 476.71875 1130.585938 477.875 1130.449219 479.011719 1130.15625 L 569.503906 1107.125 L 682.550781 1078.402344 Z M 600.945312 994.859375 " fill-opacity="1" fill-rule="nonzero"/></g></g></g><g clip-path="url(#30faded065)"><g clip-path="url(#99dd5547c2)"><g clip-path="url(#da87ab171e)"><path fill="#ffd700" d="M 415.644531 876.375 C 264.316406 642.96875 311.792969 482.707031 311.792969 482.707031 C 314.320312 477.5625 336.097656 283.929688 520.675781 124.902344 C 705.253906 -34.125 955.429688 18.554688 1029.820312 226.277344 C 1102.222656 428.480469 806.726562 796.960938 1074.507812 901.691406 C 1077.191406 898.832031 1079.933594 896.03125 1082.730469 893.285156 C 1085.53125 890.542969 1088.382812 887.855469 1091.289062 885.222656 C 1094.195312 882.59375 1097.15625 880.023438 1100.167969 877.515625 C 1103.179688 875.003906 1106.238281 872.558594 1109.351562 870.171875 C 1112.460938 867.785156 1115.617188 865.464844 1118.824219 863.207031 C 1122.027344 860.949219 1125.277344 858.757812 1128.570312 856.632812 C 1131.863281 854.503906 1135.199219 852.445312 1138.574219 850.457031 C 1141.953125 848.464844 1145.367188 846.542969 1148.824219 844.691406 C 1152.277344 842.839844 1155.769531 841.058594 1159.296875 839.347656 C 1162.824219 837.636719 1166.382812 835.996094 1169.976562 834.429688 C 1173.570312 832.863281 1177.195312 831.371094 1180.847656 829.949219 C 1184.503906 828.53125 1188.183594 827.1875 1191.890625 825.914062 C 1195.601562 824.644531 1199.332031 823.449219 1203.089844 822.332031 C 1206.847656 821.210938 1210.625 820.167969 1214.425781 819.203125 C 1218.222656 818.238281 1222.042969 817.347656 1225.878906 816.535156 C 1229.710938 815.726562 1233.5625 814.992188 1237.429688 814.335938 C 1241.292969 813.679688 1245.167969 813.105469 1249.058594 812.605469 C 1252.945312 812.109375 1256.84375 811.6875 1260.75 811.347656 C 1264.65625 811.007812 1268.566406 810.746094 1272.480469 810.566406 C 1276.398438 810.382812 1280.316406 810.28125 1284.238281 810.257812 C 1288.15625 810.234375 1292.078125 810.292969 1295.996094 810.425781 C 1299.914062 810.5625 1303.824219 810.777344 1307.734375 811.074219 C 1311.644531 811.367188 1315.546875 811.742188 1319.441406 812.191406 C 1323.335938 812.644531 1327.21875 813.175781 1331.089844 813.785156 C 1334.964844 814.398438 1338.824219 815.085938 1342.667969 815.851562 C 1346.511719 816.617188 1350.339844 817.460938 1354.152344 818.382812 C 1357.960938 819.304688 1361.753906 820.304688 1365.523438 821.378906 C 1369.292969 822.453125 1373.039062 823.605469 1376.765625 824.832031 C 1380.488281 826.058594 1384.183594 827.359375 1387.855469 828.738281 C 1391.527344 830.113281 1395.167969 831.5625 1398.78125 833.089844 C 1402.394531 834.613281 1405.972656 836.210938 1409.519531 837.878906 C 1413.066406 839.546875 1416.582031 841.289062 1420.058594 843.101562 C 1420.851562 843.507812 1421.617188 843.96875 1422.347656 844.480469 C 1423.078125 844.992188 1423.769531 845.554688 1424.421875 846.167969 C 1425.074219 846.777344 1425.683594 847.429688 1426.242188 848.125 C 1426.804688 848.820312 1427.316406 849.550781 1427.773438 850.320312 C 1428.234375 851.085938 1428.636719 851.878906 1428.984375 852.703125 C 1429.332031 853.527344 1429.617188 854.371094 1429.847656 855.234375 C 1430.078125 856.097656 1430.246094 856.972656 1430.351562 857.859375 C 1430.457031 858.746094 1430.503906 859.636719 1430.484375 860.53125 C 1430.46875 861.421875 1430.386719 862.3125 1430.246094 863.191406 C 1430.101562 864.074219 1429.898438 864.941406 1429.636719 865.796875 C 1429.371094 866.648438 1429.050781 867.480469 1428.667969 868.289062 C 1428.289062 869.097656 1427.855469 869.875 1427.367188 870.625 C 1426.875 871.371094 1426.335938 872.082031 1425.75 872.753906 C 1425.160156 873.425781 1424.527344 874.054688 1423.851562 874.636719 C 1423.175781 875.21875 1422.460938 875.753906 1421.710938 876.238281 C 1420.957031 876.71875 1420.175781 877.148438 1419.363281 877.523438 C 1413.929688 879.957031 1408.578125 882.558594 1403.304688 885.324219 C 1398.03125 888.085938 1392.847656 891.011719 1387.753906 894.097656 C 1382.660156 897.179688 1377.667969 900.417969 1372.773438 903.808594 C 1367.878906 907.199219 1363.09375 910.738281 1358.417969 914.425781 C 1353.742188 918.113281 1349.183594 921.9375 1344.742188 925.90625 C 1340.300781 929.875 1335.988281 933.972656 1331.800781 938.207031 C 1327.613281 942.4375 1323.558594 946.796875 1319.640625 951.277344 C 1315.71875 955.761719 1311.941406 960.359375 1308.304688 965.074219 C 1304.667969 969.789062 1301.179688 974.613281 1297.84375 979.542969 C 1294.503906 984.472656 1291.316406 989.5 1288.289062 994.625 C 1285.257812 999.75 1282.390625 1004.964844 1279.679688 1010.269531 C 1276.972656 1015.570312 1274.429688 1020.953125 1272.050781 1026.410156 C 1269.675781 1031.871094 1267.46875 1037.398438 1265.433594 1042.992188 C 1263.394531 1048.589844 1261.53125 1054.242188 1259.84375 1059.953125 C 1258.15625 1065.664062 1256.644531 1071.417969 1255.308594 1077.222656 C 1253.976562 1083.023438 1252.820312 1088.863281 1251.847656 1094.738281 C 1250.871094 1100.613281 1250.078125 1106.511719 1249.46875 1112.433594 C 1248.855469 1118.359375 1248.425781 1124.292969 1248.179688 1130.246094 C 1247.933594 1136.195312 1247.871094 1142.144531 1247.992188 1148.101562 C 1248.113281 1154.054688 1248.417969 1159.996094 1248.902344 1165.933594 C 1249.390625 1171.867188 1250.058594 1177.78125 1250.910156 1183.675781 C 1251.761719 1189.570312 1252.792969 1195.433594 1254.003906 1201.261719 C 1255.214844 1207.09375 1256.605469 1212.882812 1258.175781 1218.625 C 1259.742188 1224.371094 1261.488281 1230.0625 1263.40625 1235.699219 C 1265.324219 1241.339844 1267.414062 1246.910156 1269.675781 1252.421875 C 1271.9375 1257.929688 1274.367188 1263.363281 1276.964844 1268.722656 C 1279.558594 1274.082031 1282.320312 1279.355469 1285.238281 1284.546875 C 1288.160156 1289.738281 1291.238281 1294.832031 1294.472656 1299.832031 C 1297.707031 1304.832031 1301.09375 1309.726562 1304.628906 1314.519531 C 1308.167969 1319.3125 1311.847656 1323.992188 1315.671875 1328.554688 C 1319.496094 1333.121094 1323.457031 1337.5625 1327.554688 1341.886719 C 1331.652344 1346.207031 1335.878906 1350.398438 1340.234375 1354.460938 C 1340.882812 1355.070312 1341.484375 1355.726562 1342.039062 1356.421875 C 1342.597656 1357.117188 1343.101562 1357.847656 1343.554688 1358.617188 C 1344.011719 1359.382812 1344.410156 1360.175781 1344.75 1361 C 1345.09375 1361.820312 1345.378906 1362.664062 1345.605469 1363.523438 C 1345.828125 1364.386719 1345.992188 1365.261719 1346.097656 1366.144531 C 1346.199219 1367.03125 1346.242188 1367.917969 1346.222656 1368.808594 C 1346.203125 1369.699219 1346.117188 1370.585938 1345.976562 1371.464844 C 1345.832031 1372.34375 1345.625 1373.207031 1345.363281 1374.058594 C 1345.097656 1374.910156 1344.773438 1375.738281 1344.394531 1376.542969 C 1344.011719 1377.347656 1343.578125 1378.121094 1343.089844 1378.867188 C 1342.601562 1379.613281 1342.0625 1380.320312 1341.476562 1380.988281 C 1340.886719 1381.660156 1340.257812 1382.285156 1339.582031 1382.867188 C 1338.90625 1383.445312 1338.195312 1383.980469 1337.445312 1384.460938 C 1336.695312 1384.941406 1335.917969 1385.371094 1335.109375 1385.742188 C 1334.300781 1386.117188 1333.46875 1386.433594 1332.613281 1386.6875 C 1331.761719 1386.945312 1330.894531 1387.144531 1330.015625 1387.277344 C 1326.234375 1387.859375 1322.445312 1388.367188 1318.648438 1388.796875 C 1314.847656 1389.230469 1311.039062 1389.585938 1307.226562 1389.867188 C 1303.414062 1390.144531 1299.597656 1390.351562 1295.773438 1390.480469 C 1291.953125 1390.609375 1288.128906 1390.664062 1284.304688 1390.640625 C 1280.480469 1390.617188 1276.660156 1390.519531 1272.839844 1390.347656 C 1269.019531 1390.175781 1265.203125 1389.925781 1261.394531 1389.601562 C 1257.585938 1389.277344 1253.78125 1388.875 1249.988281 1388.398438 C 1246.191406 1387.925781 1242.410156 1387.375 1238.636719 1386.75 C 1234.863281 1386.125 1231.105469 1385.425781 1227.359375 1384.648438 C 1223.617188 1383.875 1219.886719 1383.027344 1216.175781 1382.105469 C 1212.464844 1381.183594 1208.773438 1380.191406 1205.101562 1379.121094 C 1201.429688 1378.054688 1197.78125 1376.914062 1194.152344 1375.699219 C 1190.527344 1374.488281 1186.925781 1373.203125 1183.347656 1371.847656 C 1179.773438 1370.492188 1176.226562 1369.066406 1172.707031 1367.574219 C 1169.1875 1366.078125 1165.699219 1364.511719 1162.238281 1362.878906 C 1158.78125 1361.242188 1155.359375 1359.542969 1151.96875 1357.773438 C 1148.578125 1356.003906 1145.222656 1354.167969 1141.90625 1352.265625 C 1138.589844 1350.363281 1135.3125 1348.394531 1132.070312 1346.363281 C 1128.832031 1344.328125 1125.632812 1342.234375 1122.476562 1340.074219 C 1119.320312 1337.917969 1116.207031 1335.695312 1113.140625 1333.414062 C 1110.070312 1331.132812 1107.046875 1328.789062 1104.074219 1326.386719 C 1101.097656 1323.984375 1098.167969 1321.523438 1095.292969 1319.007812 C 1092.414062 1316.488281 1089.585938 1313.914062 1086.808594 1311.285156 C 1084.03125 1308.65625 1081.308594 1305.972656 1078.640625 1303.234375 C 1075.96875 1300.496094 1073.355469 1297.707031 1070.792969 1294.863281 C 1068.234375 1292.023438 1065.730469 1289.132812 1063.285156 1286.191406 C 1060.839844 1283.25 1058.457031 1280.265625 1056.128906 1277.230469 C 1053.800781 1274.195312 1051.535156 1271.113281 1049.332031 1267.988281 C 1047.125 1264.863281 1044.984375 1261.699219 1042.90625 1258.488281 C 1040.824219 1255.277344 1038.808594 1252.027344 1036.859375 1248.738281 C 1034.910156 1245.449219 1033.023438 1242.125 1031.203125 1238.761719 C 1029.386719 1235.394531 1027.632812 1231.996094 1025.949219 1228.5625 C 953.542969 1217.660156 593.539062 1150.71875 415.644531 876.375 Z M 415.644531 876.375 " fill-opacity="1" fill-rule="nonzero"/></g></g></g><g clip-path="url(#172cea9691)"><g clip-path="url(#27774f3f78)"><g clip-path="url(#114dce7e09)"><path fill="#fcf1eb" d="M 1025.972656 1228.542969 C 911.925781 934.242188 682.945312 797.457031 639.070312 466.675781 C 624.96875 460.285156 606.101562 455.921875 587.949219 444.769531 C 554.707031 424.167969 611.011719 429.382812 621.296875 411.421875 C 631.582031 393.464844 598.210938 396.054688 584.109375 374.234375 C 573.820312 358.46875 612.457031 335.429688 635.199219 320.445312 C 648.234375 178.644531 710.175781 85.289062 759.328125 32.175781 C 877.921875 33.28125 985.328125 101.988281 1029.820312 226.277344 C 1102.246094 428.457031 806.746094 796.941406 1074.527344 901.667969 C 1077.214844 898.8125 1079.957031 896.015625 1082.753906 893.269531 C 1085.554688 890.527344 1088.40625 887.839844 1091.316406 885.210938 C 1094.222656 882.582031 1097.183594 880.015625 1100.195312 877.503906 C 1103.207031 874.996094 1106.269531 872.550781 1109.378906 870.164062 C 1112.488281 867.78125 1115.648438 865.460938 1118.851562 863.203125 C 1122.058594 860.945312 1125.308594 858.757812 1128.601562 856.632812 C 1131.894531 854.507812 1135.230469 852.449219 1138.605469 850.457031 C 1141.984375 848.46875 1145.398438 846.546875 1148.855469 844.695312 C 1152.308594 842.84375 1155.800781 841.0625 1159.328125 839.355469 C 1162.855469 837.644531 1166.414062 836.007812 1170.007812 834.441406 C 1173.601562 832.875 1177.226562 831.382812 1180.878906 829.960938 C 1184.535156 828.542969 1188.214844 827.199219 1191.921875 825.929688 C 1195.632812 824.660156 1199.363281 823.464844 1203.121094 822.34375 C 1206.878906 821.226562 1210.65625 820.183594 1214.453125 819.21875 C 1218.253906 818.253906 1222.070312 817.363281 1225.90625 816.554688 C 1229.742188 815.742188 1233.589844 815.007812 1237.457031 814.351562 C 1241.320312 813.699219 1245.195312 813.121094 1249.085938 812.621094 C 1252.972656 812.125 1256.871094 811.703125 1260.773438 811.363281 C 1264.679688 811.023438 1268.589844 810.761719 1272.507812 810.582031 C 1276.421875 810.398438 1280.339844 810.296875 1284.261719 810.273438 C 1288.179688 810.25 1292.097656 810.304688 1296.015625 810.441406 C 1299.933594 810.574219 1303.847656 810.789062 1307.757812 811.085938 C 1311.664062 811.378906 1315.566406 811.75 1319.460938 812.203125 C 1323.355469 812.65625 1327.238281 813.183594 1331.109375 813.792969 C 1334.984375 814.402344 1338.84375 815.089844 1342.6875 815.855469 C 1346.53125 816.621094 1350.359375 817.464844 1354.171875 818.386719 C 1357.980469 819.304688 1361.769531 820.300781 1365.542969 821.375 C 1369.3125 822.449219 1373.058594 823.601562 1376.78125 824.824219 C 1380.507812 826.050781 1384.203125 827.351562 1387.875 828.726562 C 1391.546875 830.101562 1395.1875 831.550781 1398.800781 833.074219 C 1402.414062 834.597656 1405.992188 836.195312 1409.539062 837.863281 C 1413.089844 839.53125 1416.601562 841.269531 1420.078125 843.078125 C 1420.871094 843.488281 1421.636719 843.949219 1422.363281 844.464844 C 1423.09375 844.980469 1423.785156 845.542969 1424.4375 846.15625 C 1425.089844 846.765625 1425.695312 847.421875 1426.253906 848.117188 C 1426.8125 848.8125 1427.320312 849.542969 1427.777344 850.3125 C 1428.238281 851.078125 1428.636719 851.875 1428.984375 852.699219 C 1429.332031 853.523438 1429.617188 854.367188 1429.847656 855.230469 C 1430.074219 856.09375 1430.242188 856.96875 1430.347656 857.855469 C 1430.453125 858.742188 1430.496094 859.632812 1430.480469 860.527344 C 1430.460938 861.417969 1430.378906 862.304688 1430.238281 863.1875 C 1430.09375 864.070312 1429.890625 864.9375 1429.628906 865.792969 C 1429.363281 866.644531 1429.042969 867.476562 1428.660156 868.285156 C 1428.28125 869.09375 1427.847656 869.871094 1427.359375 870.617188 C 1426.871094 871.367188 1426.332031 872.074219 1425.742188 872.746094 C 1425.15625 873.417969 1424.523438 874.046875 1423.847656 874.632812 C 1423.171875 875.214844 1422.457031 875.75 1421.707031 876.234375 C 1420.957031 876.71875 1420.175781 877.148438 1419.363281 877.523438 C 1413.929688 879.957031 1408.578125 882.558594 1403.304688 885.324219 C 1398.03125 888.085938 1392.847656 891.011719 1387.753906 894.097656 C 1382.660156 897.179688 1377.667969 900.417969 1372.773438 903.808594 C 1367.878906 907.199219 1363.09375 910.738281 1358.417969 914.425781 C 1353.742188 918.113281 1349.183594 921.9375 1344.742188 925.90625 C 1340.300781 929.875 1335.988281 933.972656 1331.800781 938.207031 C 1327.613281 942.4375 1323.558594 946.796875 1319.640625 951.277344 C 1315.71875 955.761719 1311.941406 960.359375 1308.304688 965.074219 C 1304.667969 969.789062 1301.179688 974.613281 1297.84375 979.542969 C 1294.503906 984.472656 1291.316406 989.5 1288.289062 994.625 C 1285.257812 999.75 1282.390625 1004.964844 1279.679688 1010.269531 C 1276.972656 1015.570312 1274.429688 1020.953125 1272.050781 1026.410156 C 1269.675781 1031.871094 1267.46875 1037.398438 1265.433594 1042.992188 C 1263.394531 1048.589844 1261.53125 1054.242188 1259.84375 1059.953125 C 1258.15625 1065.664062 1256.644531 1071.417969 1255.308594 1077.222656 C 1253.976562 1083.023438 1252.820312 1088.863281 1251.847656 1094.738281 C 1250.871094 1100.613281 1250.078125 1106.511719 1249.46875 1112.433594 C 1248.855469 1118.359375 1248.425781 1124.292969 1248.179688 1130.246094 C 1247.933594 1136.195312 1247.871094 1142.144531 1247.992188 1148.101562 C 1248.113281 1154.054688 1248.417969 1159.996094 1248.902344 1165.933594 C 1249.390625 1171.867188 1250.058594 1177.78125 1250.910156 1183.675781 C 1251.761719 1189.570312 1252.792969 1195.433594 1254.003906 1201.261719 C 1255.214844 1207.09375 1256.605469 1212.882812 1258.175781 1218.625 C 1259.742188 1224.371094 1261.488281 1230.0625 1263.40625 1235.699219 C 1265.324219 1241.339844 1267.414062 1246.910156 1269.675781 1252.421875 C 1271.9375 1257.929688 1274.367188 1263.363281 1276.964844 1268.722656 C 1279.558594 1274.082031 1282.320312 1279.355469 1285.238281 1284.546875 C 1288.160156 1289.738281 1291.238281 1294.832031 1294.472656 1299.832031 C 1297.707031 1304.832031 1301.09375 1309.726562 1304.628906 1314.519531 C 1308.167969 1319.3125 1311.847656 1323.992188 1315.671875 1328.554688 C 1319.496094 1333.121094 1323.457031 1337.5625 1327.554688 1341.886719 C 1331.652344 1346.207031 1335.878906 1350.398438 1340.234375 1354.460938 C 1340.882812 1355.070312 1341.484375 1355.726562 1342.039062 1356.421875 C 1342.597656 1357.117188 1343.101562 1357.847656 1343.554688 1358.617188 C 1344.011719 1359.382812 1344.410156 1360.175781 1344.75 1361 C 1345.09375 1361.820312 1345.378906 1362.664062 1345.605469 1363.523438 C 1345.828125 1364.386719 1345.992188 1365.261719 1346.097656 1366.144531 C 1346.199219 1367.03125 1346.242188 1367.917969 1346.222656 1368.808594 C 1346.203125 1369.699219 1346.117188 1370.585938 1345.976562 1371.464844 C 1345.832031 1372.34375 1345.625 1373.207031 1345.363281 1374.058594 C 1345.097656 1374.910156 1344.773438 1375.738281 1344.394531 1376.542969 C 1344.011719 1377.347656 1343.578125 1378.121094 1343.089844 1378.867188 C 1342.601562 1379.613281 1342.0625 1380.320312 1341.476562 1380.988281 C 1340.886719 1381.660156 1340.257812 1382.285156 1339.582031 1382.867188 C 1338.90625 1383.445312 1338.195312 1383.980469 1337.445312 1384.460938 C 1336.695312 1384.941406 1335.917969 1385.371094 1335.109375 1385.742188 C 1334.300781 1386.117188 1333.46875 1386.433594 1332.613281 1386.6875 C 1331.761719 1386.945312 1330.894531 1387.144531 1330.015625 1387.277344 C 1326.234375 1387.859375 1322.445312 1388.363281 1318.648438 1388.792969 C 1314.847656 1389.222656 1311.042969 1389.578125 1307.226562 1389.859375 C 1303.414062 1390.136719 1299.597656 1390.339844 1295.777344 1390.46875 C 1291.953125 1390.597656 1288.132812 1390.652344 1284.308594 1390.628906 C 1280.484375 1390.605469 1276.664062 1390.503906 1272.84375 1390.332031 C 1269.023438 1390.15625 1265.210938 1389.90625 1261.398438 1389.582031 C 1257.589844 1389.253906 1253.789062 1388.855469 1249.992188 1388.378906 C 1246.199219 1387.902344 1242.417969 1387.351562 1238.644531 1386.726562 C 1234.871094 1386.097656 1231.113281 1385.398438 1227.371094 1384.625 C 1223.625 1383.847656 1219.898438 1383 1216.1875 1382.078125 C 1212.476562 1381.15625 1208.785156 1380.160156 1205.113281 1379.089844 C 1201.441406 1378.023438 1197.792969 1376.882812 1194.164062 1375.667969 C 1190.539062 1374.457031 1186.9375 1373.171875 1183.363281 1371.816406 C 1179.789062 1370.460938 1176.238281 1369.035156 1172.722656 1367.539062 C 1169.203125 1366.042969 1165.714844 1364.476562 1162.257812 1362.84375 C 1158.800781 1361.210938 1155.375 1359.507812 1151.984375 1357.738281 C 1148.597656 1355.96875 1145.242188 1354.132812 1141.925781 1352.230469 C 1138.609375 1350.328125 1135.332031 1348.359375 1132.089844 1346.328125 C 1128.851562 1344.292969 1125.65625 1342.199219 1122.5 1340.039062 C 1119.34375 1337.882812 1116.230469 1335.660156 1113.160156 1333.378906 C 1110.09375 1331.097656 1107.070312 1328.753906 1104.09375 1326.351562 C 1101.121094 1323.949219 1098.191406 1321.492188 1095.316406 1318.972656 C 1092.4375 1316.457031 1089.609375 1313.882812 1086.832031 1311.253906 C 1084.058594 1308.621094 1081.332031 1305.9375 1078.664062 1303.203125 C 1075.992188 1300.464844 1073.378906 1297.675781 1070.820312 1294.835938 C 1068.257812 1291.992188 1065.757812 1289.101562 1063.3125 1286.164062 C 1060.867188 1283.222656 1058.480469 1280.234375 1056.152344 1277.199219 C 1053.828125 1274.167969 1051.558594 1271.085938 1049.355469 1267.960938 C 1047.152344 1264.839844 1045.007812 1261.671875 1042.929688 1258.460938 C 1040.847656 1255.253906 1038.832031 1252.003906 1036.882812 1248.714844 C 1034.933594 1245.425781 1033.046875 1242.101562 1031.226562 1238.738281 C 1029.40625 1235.375 1027.65625 1231.976562 1025.972656 1228.542969 Z M 1025.972656 1228.542969 " fill-opacity="1" fill-rule="nonzero"/></g></g></g><g clip-path="url(#45942578a8)"><g clip-path="url(#49e02f2522)"><g clip-path="url(#2a3453261e)"><path fill="#ffa4ba" d="M 844.269531 133.554688 C 844.769531 133.046875 845.296875 132.574219 845.855469 132.136719 C 846.414062 131.695312 846.996094 131.289062 847.601562 130.917969 C 848.207031 130.550781 848.835938 130.21875 849.484375 129.925781 C 850.128906 129.632812 850.792969 129.378906 851.472656 129.167969 C 852.148438 128.953125 852.839844 128.78125 853.539062 128.65625 C 854.238281 128.527344 854.941406 128.441406 855.652344 128.398438 C 856.359375 128.355469 857.070312 128.355469 857.777344 128.398438 C 858.488281 128.441406 859.191406 128.527344 859.890625 128.660156 C 860.589844 128.789062 861.277344 128.960938 861.957031 129.171875 C 862.636719 129.386719 863.296875 129.640625 863.945312 129.933594 C 864.589844 130.226562 865.21875 130.5625 865.824219 130.929688 C 866.433594 131.300781 867.015625 131.707031 867.570312 132.148438 C 868.128906 132.589844 868.65625 133.0625 869.15625 133.570312 C 869.65625 134.074219 870.121094 134.609375 870.558594 135.171875 C 870.992188 135.734375 871.390625 136.320312 871.753906 136.933594 C 872.117188 137.542969 872.441406 138.175781 872.726562 138.828125 C 885.335938 168.886719 875.894531 209.105469 846.617188 238.382812 C 817.339844 267.660156 777.101562 277.121094 747.042969 264.511719 C 746.390625 264.226562 745.757812 263.898438 745.148438 263.535156 C 744.535156 263.171875 743.949219 262.773438 743.382812 262.339844 C 742.820312 261.90625 742.285156 261.4375 741.78125 260.9375 C 741.273438 260.4375 740.800781 259.90625 740.359375 259.351562 C 739.917969 258.792969 739.511719 258.210938 739.140625 257.601562 C 738.769531 256.996094 738.4375 256.367188 738.144531 255.71875 C 737.851562 255.070312 737.597656 254.40625 737.382812 253.730469 C 737.171875 253.050781 737 252.359375 736.871094 251.660156 C 736.742188 250.960938 736.65625 250.257812 736.613281 249.546875 C 736.570312 248.835938 736.570312 248.125 736.613281 247.417969 C 736.65625 246.707031 736.742188 246 736.875 245.300781 C 737.003906 244.601562 737.175781 243.914062 737.386719 243.234375 C 737.601562 242.558594 737.855469 241.894531 738.148438 241.246094 C 738.445312 240.597656 738.777344 239.972656 739.148438 239.363281 C 739.519531 238.757812 739.925781 238.175781 740.367188 237.617188 C 740.808594 237.058594 741.285156 236.53125 741.789062 236.03125 Z M 844.269531 133.554688 " fill-opacity="1" fill-rule="nonzero"/></g></g></g><g clip-path="url(#62ed3ce56f)"><g clip-path="url(#4f468a65ca)"><g clip-path="url(#f8215578db)"><path fill="#703e23" d="M 570.835938 229.859375 C 571.351562 230.375 571.910156 230.835938 572.515625 231.242188 C 573.121094 231.644531 573.761719 231.988281 574.433594 232.265625 C 575.105469 232.542969 575.800781 232.753906 576.511719 232.894531 C 577.226562 233.039062 577.949219 233.109375 578.675781 233.109375 C 579.40625 233.109375 580.125 233.039062 580.839844 232.898438 C 581.554688 232.753906 582.246094 232.542969 582.921875 232.265625 C 583.59375 231.988281 584.230469 231.644531 584.835938 231.242188 C 585.441406 230.835938 586.003906 230.378906 586.519531 229.863281 C 587.03125 229.347656 587.492188 228.789062 587.898438 228.183594 C 588.300781 227.578125 588.644531 226.9375 588.921875 226.265625 C 589.199219 225.59375 589.410156 224.898438 589.550781 224.183594 C 589.695312 223.46875 589.765625 222.75 589.765625 222.019531 C 589.765625 221.292969 589.695312 220.570312 589.550781 219.859375 C 589.410156 219.144531 589.199219 218.449219 588.921875 217.777344 C 588.640625 217.105469 588.300781 216.464844 587.894531 215.859375 C 587.492188 215.253906 587.03125 214.695312 586.515625 214.179688 C 586 213.664062 585.441406 213.203125 584.835938 212.800781 C 584.230469 212.394531 583.589844 212.054688 582.917969 211.773438 C 582.246094 211.496094 581.550781 211.285156 580.839844 211.144531 C 580.125 211 579.402344 210.929688 578.675781 210.929688 C 577.945312 210.929688 577.226562 211 576.511719 211.144531 C 575.796875 211.285156 575.105469 211.496094 574.429688 211.773438 C 573.757812 212.054688 573.121094 212.394531 572.515625 212.800781 C 571.910156 213.203125 571.347656 213.664062 570.832031 214.179688 C 570.320312 214.691406 569.859375 215.253906 569.453125 215.859375 C 569.050781 216.464844 568.707031 217.101562 568.429688 217.773438 C 568.152344 218.449219 567.941406 219.140625 567.800781 219.855469 C 567.65625 220.570312 567.585938 221.289062 567.585938 222.019531 C 567.585938 222.746094 567.65625 223.46875 567.800781 224.183594 C 567.941406 224.898438 568.152344 225.589844 568.429688 226.261719 C 568.710938 226.9375 569.050781 227.574219 569.457031 228.179688 C 569.859375 228.785156 570.320312 229.347656 570.835938 229.859375 Z M 570.835938 229.859375 " fill-opacity="1" fill-rule="nonzero"/></g></g></g><g clip-path="url(#22e014e517)"><g clip-path="url(#afd69b3717)"><g clip-path="url(#09588bbb95)"><path fill="#ffd700" d="M 627.027344 613.511719 C 627.027344 613.511719 806.878906 627.949219 808.820312 647.171875 C 810.761719 666.398438 644.414062 811.578125 644.414062 811.578125 " fill-opacity="1" fill-rule="nonzero"/></g></g></g><g clip-path="url(#b37072071e)"><g clip-path="url(#c4fdaa6d5f)"><g clip-path="url(#90c15ecb1d)"><path fill="#ffc138" d="M 627.046875 602.320312 C 651.710938 604.304688 676.351562 606.898438 700.910156 609.871094 C 721.082031 612.339844 741.214844 615.019531 761.199219 618.648438 C 776.207031 621.347656 791.59375 624.214844 805.632812 630.328125 C 808.203125 631.273438 810.550781 632.601562 812.6875 634.3125 C 814.820312 636.019531 816.632812 638.023438 818.113281 640.324219 C 821.277344 646.054688 819.90625 652.0625 817.125 657.542969 C 814.382812 662.371094 811.195312 666.882812 807.558594 671.078125 C 803.257812 676.429688 798.664062 681.574219 793.960938 686.609375 C 767.890625 714.75 739.644531 740.925781 711.253906 766.703125 C 692.09375 784.21875 672.914062 801.714844 653.246094 818.679688 L 652.339844 819.585938 C 651.816406 820.09375 651.246094 820.546875 650.632812 820.945312 C 650.019531 821.339844 649.375 821.675781 648.699219 821.949219 C 648.023438 822.222656 647.324219 822.429688 646.609375 822.570312 C 645.890625 822.707031 645.167969 822.777344 644.4375 822.777344 C 643.707031 822.777344 642.984375 822.707031 642.265625 822.566406 C 641.550781 822.429688 640.851562 822.222656 640.175781 821.949219 C 639.496094 821.675781 638.851562 821.339844 638.238281 820.941406 C 637.628906 820.546875 637.058594 820.09375 636.53125 819.585938 C 632.675781 815.390625 631.808594 807.90625 636.53125 803.777344 C 652.296875 790.035156 667.851562 776.082031 683.449219 761.917969 C 711.800781 736.222656 740 710.257812 766.746094 682.835938 C 772.3125 677.269531 777.707031 671.496094 782.976562 665.636719 C 785.199219 663.164062 787.367188 660.652344 789.492188 658.109375 L 792.082031 654.96875 L 793.367188 653.304688 C 794.128906 652.546875 791.28125 656.152344 793.074219 653.601562 C 794.339844 651.828125 795.625 650.039062 796.742188 648.160156 L 797.941406 645.949219 C 799.289062 643.460938 797.097656 648.941406 797.710938 646.433594 C 798.320312 643.925781 797.648438 649.40625 797.648438 647.59375 C 797.648438 645.78125 798.132812 650.4375 797.941406 649.617188 C 797.519531 647.886719 799.4375 652.757812 798.636719 651.28125 C 797.835938 649.804688 801.253906 654.234375 799.125 652.0625 C 796.992188 649.890625 801.988281 653.707031 799.25 652.1875 C 798.40625 651.722656 797.5625 651.21875 796.65625 650.777344 C 795.75 650.332031 795.625 650.289062 795.074219 650.039062 C 792.695312 648.921875 796.507812 650.542969 795.664062 650.25 C 792.925781 649.277344 790.207031 648.289062 787.421875 647.445312 C 780.152344 645.316406 772.75 643.648438 765.3125 642.195312 C 746.972656 638.480469 728.421875 635.824219 709.871094 633.417969 C 709.363281 633.335938 708.878906 633.269531 708.375 633.230469 C 711.074219 633.566406 709.574219 633.378906 708.984375 633.292969 L 705.253906 632.808594 L 697.917969 631.921875 C 693.140625 631.332031 688.375 630.78125 683.625 630.277344 C 675.257812 629.328125 666.890625 628.460938 658.5 627.617188 C 648.480469 626.617188 638.4375 625.699219 628.378906 624.851562 L 626.964844 624.746094 C 626.234375 624.726562 625.515625 624.640625 624.800781 624.484375 C 624.089844 624.328125 623.398438 624.105469 622.726562 623.816406 C 622.058594 623.527344 621.421875 623.179688 620.816406 622.769531 C 620.214844 622.359375 619.652344 621.898438 619.136719 621.378906 C 618.621094 620.863281 618.160156 620.304688 617.75 619.703125 C 617.339844 619.097656 616.992188 618.460938 616.703125 617.789062 C 616.414062 617.121094 616.191406 616.429688 616.035156 615.714844 C 615.878906 615.003906 615.789062 614.28125 615.769531 613.554688 C 615.777344 612.820312 615.855469 612.09375 616.003906 611.378906 C 616.152344 610.660156 616.367188 609.960938 616.648438 609.285156 C 616.933594 608.609375 617.28125 607.96875 617.6875 607.359375 C 618.097656 606.75 618.558594 606.1875 619.078125 605.667969 C 619.597656 605.152344 620.160156 604.6875 620.769531 604.277344 C 621.378906 603.871094 622.019531 603.523438 622.695312 603.242188 C 623.371094 602.957031 624.066406 602.742188 624.785156 602.59375 C 625.503906 602.445312 626.230469 602.367188 626.960938 602.359375 Z M 627.046875 602.320312 " fill-opacity="1" fill-rule="nonzero"/></g></g></g></svg>