<svg xmlns="http://www.w3.org/2000/svg" xmlns:xlink="http://www.w3.org/1999/xlink" width="1920" zoomAndPan="magnify" viewBox="0 0 1440 1439.999935" height="1920" preserveAspectRatio="xMidYMid meet" version="1.0"><defs><clipPath id="dfe506e018"><path d="M 720 0 C 322.355469 0 0 322.355469 0 720 C 0 1117.644531 322.355469 1440 720 1440 C 1117.644531 1440 1440 1117.644531 1440 720 C 1440 322.355469 1117.644531 0 720 0 " clip-rule="nonzero"/></clipPath><clipPath id="75c5979bbd"><path d="M 503 677 L 670 677 L 670 817 L 503 817 Z M 503 677 " clip-rule="nonzero"/></clipPath><clipPath id="099d2c6c72"><path d="M 106.40625 413.613281 L 971.550781 44.105469 L 1416.332031 1085.484375 L 551.183594 1454.992188 Z M 106.40625 413.613281 " clip-rule="nonzero"/></clipPath><clipPath id="35990a011d"><path d="M 106.40625 413.613281 L 971.550781 44.105469 L 1416.332031 1085.484375 L 551.183594 1454.992188 Z M 106.40625 413.613281 " clip-rule="nonzero"/></clipPath><clipPath id="7a40ca0f17"><path d="M 494 668 L 678 668 L 678 825 L 494 825 Z M 494 668 " clip-rule="nonzero"/></clipPath><clipPath id="920d1df464"><path d="M 106.40625 413.613281 L 971.550781 44.105469 L 1416.332031 1085.484375 L 551.183594 1454.992188 Z M 106.40625 413.613281 " clip-rule="nonzero"/></clipPath><clipPath id="e10dd6c2c2"><path d="M 106.40625 413.613281 L 971.550781 44.105469 L 1416.332031 1085.484375 L 551.183594 1454.992188 Z M 106.40625 413.613281 " clip-rule="nonzero"/></clipPath><clipPath id="b449412914"><path d="M 655 133 L 1016 133 L 1016 515 L 655 515 Z M 655 133 " clip-rule="nonzero"/></clipPath><clipPath id="ad11d03894"><path d="M 106.40625 413.613281 L 971.550781 44.105469 L 1416.332031 1085.484375 L 551.183594 1454.992188 Z M 106.40625 413.613281 " clip-rule="nonzero"/></clipPath><clipPath id="8ff714fd40"><path d="M 106.40625 413.613281 L 971.550781 44.105469 L 1416.332031 1085.484375 L 551.183594 1454.992188 Z M 106.40625 413.613281 " clip-rule="nonzero"/></clipPath><clipPath id="b4f22b4845"><path d="M 938 532 L 1108 532 L 1108 696 L 938 696 Z M 938 532 " clip-rule="nonzero"/></clipPath><clipPath id="31fad9a0c0"><path d="M 106.40625 413.613281 L 971.550781 44.105469 L 1416.332031 1085.484375 L 551.183594 1454.992188 Z M 106.40625 413.613281 " clip-rule="nonzero"/></clipPath><clipPath id="c5bff4112e"><path d="M 106.40625 413.613281 L 971.550781 44.105469 L 1416.332031 1085.484375 L 551.183594 1454.992188 Z M 106.40625 413.613281 " clip-rule="nonzero"/></clipPath><clipPath id="4e2b37760f"><path d="M 231 255 L 1076 255 L 1076 1248 L 231 1248 Z M 231 255 " clip-rule="nonzero"/></clipPath><clipPath id="1e44b9024e"><path d="M 106.40625 413.613281 L 971.550781 44.105469 L 1416.332031 1085.484375 L 551.183594 1454.992188 Z M 106.40625 413.613281 " clip-rule="nonzero"/></clipPath><clipPath id="c779699af6"><path d="M 106.40625 413.613281 L 971.550781 44.105469 L 1416.332031 1085.484375 L 551.183594 1454.992188 Z M 106.40625 413.613281 " clip-rule="nonzero"/></clipPath><clipPath id="e7c3c35da3"><path d="M 231 423 L 1076 423 L 1076 1248 L 231 1248 Z M 231 423 " clip-rule="nonzero"/></clipPath><clipPath id="7b92dcfe24"><path d="M 106.40625 413.613281 L 971.550781 44.105469 L 1416.332031 1085.484375 L 551.183594 1454.992188 Z M 106.40625 413.613281 " clip-rule="nonzero"/></clipPath><clipPath id="e17b22d919"><path d="M 106.40625 413.613281 L 971.550781 44.105469 L 1416.332031 1085.484375 L 551.183594 1454.992188 Z M 106.40625 413.613281 " clip-rule="nonzero"/></clipPath><clipPath id="724e6df9c1"><path d="M 286 497 L 416 497 L 416 581 L 286 581 Z M 286 497 " clip-rule="nonzero"/></clipPath><clipPath id="5f8d47746c"><path d="M 106.40625 413.613281 L 971.550781 44.105469 L 1416.332031 1085.484375 L 551.183594 1454.992188 Z M 106.40625 413.613281 " clip-rule="nonzero"/></clipPath><clipPath id="635c535e9e"><path d="M 106.40625 413.613281 L 971.550781 44.105469 L 1416.332031 1085.484375 L 551.183594 1454.992188 Z M 106.40625 413.613281 " clip-rule="nonzero"/></clipPath><clipPath id="9f3416b37b"><path d="M 424 371 L 442 371 L 442 389 L 424 389 Z M 424 371 " clip-rule="nonzero"/></clipPath><clipPath id="76ff05da3b"><path d="M 106.40625 413.613281 L 971.550781 44.105469 L 1416.332031 1085.484375 L 551.183594 1454.992188 Z M 106.40625 413.613281 " clip-rule="nonzero"/></clipPath><clipPath id="aed99aa5ba"><path d="M 106.40625 413.613281 L 971.550781 44.105469 L 1416.332031 1085.484375 L 551.183594 1454.992188 Z M 106.40625 413.613281 " clip-rule="nonzero"/></clipPath><clipPath id="d950fb4912"><path d="M 666 524 L 833 524 L 833 664 L 666 664 Z M 666 524 " clip-rule="nonzero"/></clipPath><clipPath id="998e2904a0"><path d="M 106.40625 413.613281 L 971.550781 44.105469 L 1416.332031 1085.484375 L 551.183594 1454.992188 Z M 106.40625 413.613281 " clip-rule="nonzero"/></clipPath><clipPath id="9f274b90c7"><path d="M 106.40625 413.613281 L 971.550781 44.105469 L 1416.332031 1085.484375 L 551.183594 1454.992188 Z M 106.40625 413.613281 " clip-rule="nonzero"/></clipPath><clipPath id="fa3562c507"><path d="M 657 516 L 841 516 L 841 672 L 657 672 Z M 657 516 " clip-rule="nonzero"/></clipPath><clipPath id="ebc6b25b17"><path d="M 106.40625 413.613281 L 971.550781 44.105469 L 1416.332031 1085.484375 L 551.183594 1454.992188 Z M 106.40625 413.613281 " clip-rule="nonzero"/></clipPath><clipPath id="72ffdf1094"><path d="M 106.40625 413.613281 L 971.550781 44.105469 L 1416.332031 1085.484375 L 551.183594 1454.992188 Z M 106.40625 413.613281 " clip-rule="nonzero"/></clipPath></defs><g clip-path="url(#dfe506e018)"><rect x="-144" width="1728" fill="#00b4b4" y="-143.999994" height="1727.999922" fill-opacity="1"/></g><g clip-path="url(#75c5979bbd)"><g clip-path="url(#099d2c6c72)"><g clip-path="url(#35990a011d)"><path fill="#ffd700" d="M 533.898438 677.457031 C 533.898438 677.457031 492.769531 808.707031 505.878906 815.617188 C 518.988281 822.527344 669.300781 745.820312 669.300781 745.820312 " fill-opacity="1" fill-rule="nonzero"/></g></g></g><g clip-path="url(#7a40ca0f17)"><g clip-path="url(#920d1df464)"><g clip-path="url(#e10dd6c2c2)"><path fill="#ffc138" d="M 525.984375 674.296875 C 520.34375 692.300781 515.144531 710.457031 510.238281 728.664062 C 506.214844 743.605469 502.371094 758.621094 499.230469 773.777344 C 496.855469 785.152344 494.492188 796.847656 494.8125 808.5 C 494.75 810.582031 495.015625 812.621094 495.617188 814.613281 C 496.21875 816.605469 497.121094 818.453125 498.328125 820.152344 C 501.484375 824.007812 506.132812 824.738281 510.800781 824.296875 C 515.007812 823.738281 519.117188 822.765625 523.128906 821.375 C 528.148438 819.847656 533.105469 818.050781 538.015625 816.152344 C 565.386719 805.644531 591.964844 792.988281 618.378906 780.300781 C 636.238281 771.707031 654.128906 763.082031 671.765625 753.96875 L 672.667969 753.582031 C 673.183594 753.363281 673.671875 753.09375 674.136719 752.777344 C 674.597656 752.460938 675.027344 752.105469 675.417969 751.703125 C 675.8125 751.304688 676.164062 750.871094 676.46875 750.402344 C 676.777344 749.933594 677.035156 749.4375 677.246094 748.917969 C 677.453125 748.398438 677.609375 747.867188 677.714844 747.316406 C 677.820312 746.765625 677.867188 746.210938 677.863281 745.652344 C 677.859375 745.09375 677.796875 744.542969 677.683594 743.996094 C 677.570312 743.449219 677.402344 742.917969 677.183594 742.402344 C 676.964844 741.890625 676.695312 741.402344 676.378906 740.941406 C 676.0625 740.480469 675.707031 740.054688 675.304688 739.664062 C 674.90625 739.273438 674.472656 738.925781 674 738.621094 C 673.53125 738.316406 673.039062 738.0625 672.519531 737.855469 C 672 737.644531 671.460938 737.492188 670.910156 737.390625 C 670.359375 737.285156 669.804688 737.238281 669.246094 737.246094 C 668.683594 737.253906 668.128906 737.316406 667.582031 737.429688 C 667.03125 737.546875 666.5 737.714844 665.984375 737.933594 C 651.746094 745.199219 637.417969 752.257812 622.929688 759.285156 C 596.628906 772.070312 570.179688 784.675781 543.113281 795.839844 C 537.582031 798.203125 531.949219 800.386719 526.273438 802.464844 C 523.914062 803.324219 521.519531 804.152344 519.105469 804.9375 L 516.140625 805.882812 L 514.59375 806.320312 C 513.839844 806.644531 517.203125 805.648438 514.886719 806.195312 C 513.25 806.597656 511.632812 806.992188 509.984375 807.25 L 508.074219 807.476562 C 505.925781 807.726562 510.4375 807.726562 508.484375 807.449219 C 506.53125 807.171875 510.609375 808.246094 509.324219 807.730469 C 508.039062 807.21875 511.199219 808.878906 510.671875 808.511719 C 509.570312 807.726562 512.46875 810.457031 511.652344 809.476562 C 510.835938 808.492188 512.976562 812.167969 512.046875 810.046875 C 511.117188 807.929688 512.414062 812.53125 512.101562 810.171875 C 512.011719 809.445312 511.894531 808.707031 511.796875 807.835938 C 511.695312 806.964844 511.738281 806.945312 511.726562 806.507812 C 511.613281 804.507812 511.671875 807.664062 511.707031 806.984375 C 511.800781 804.773438 511.875 802.570312 512.074219 800.363281 C 512.621094 794.628906 513.574219 788.917969 514.671875 783.242188 C 517.28125 769.226562 520.695312 755.359375 524.28125 741.539062 L 524.585938 740.449219 C 524.050781 742.453125 524.347656 741.339844 524.453125 740.898438 L 525.175781 738.121094 L 526.601562 732.582031 C 527.539062 729.054688 528.511719 725.53125 529.515625 722.007812 C 531.234375 715.824219 533.011719 709.660156 534.8125 703.488281 C 536.972656 696.136719 539.1875 688.773438 541.457031 681.40625 L 541.785156 680.378906 C 541.980469 679.855469 542.125 679.324219 542.214844 678.773438 C 542.308594 678.226562 542.347656 677.675781 542.335938 677.117188 C 542.324219 676.5625 542.257812 676.015625 542.140625 675.472656 C 542.023438 674.929688 541.855469 674.402344 541.636719 673.890625 C 541.417969 673.382812 541.15625 672.894531 540.84375 672.4375 C 540.53125 671.976562 540.179688 671.550781 539.789062 671.15625 C 539.398438 670.761719 538.96875 670.410156 538.511719 670.097656 C 538.050781 669.785156 537.566406 669.519531 537.054688 669.300781 C 536.53125 669.097656 535.996094 668.945312 535.445312 668.847656 C 534.894531 668.75 534.339844 668.707031 533.78125 668.714844 C 533.21875 668.722656 532.667969 668.789062 532.117188 668.90625 C 531.570312 669.023438 531.039062 669.191406 530.523438 669.410156 C 530.007812 669.628906 529.519531 669.898438 529.058594 670.210938 C 528.59375 670.527344 528.164062 670.882812 527.769531 671.28125 C 527.375 671.679688 527.023438 672.109375 526.714844 672.578125 C 526.40625 673.042969 526.144531 673.535156 525.929688 674.050781 Z M 525.984375 674.296875 " fill-opacity="1" fill-rule="nonzero"/></g></g></g><g clip-path="url(#b449412914)"><g clip-path="url(#ad11d03894)"><g clip-path="url(#8ff714fd40)"><path fill="#ffc138" d="M 815.964844 396.992188 L 655.617188 279.972656 L 837.882812 199.65625 L 983.851562 135.390625 C 984.765625 134.976562 985.707031 134.625 986.667969 134.335938 C 987.632812 134.046875 988.609375 133.820312 989.601562 133.660156 C 990.59375 133.5 991.589844 133.40625 992.59375 133.375 C 993.601562 133.347656 994.601562 133.386719 995.601562 133.488281 C 996.597656 133.59375 997.585938 133.761719 998.5625 133.996094 C 999.539062 134.226562 1000.496094 134.527344 1001.429688 134.886719 C 1002.367188 135.246094 1003.277344 135.664062 1004.15625 136.144531 C 1005.035156 136.625 1005.878906 137.164062 1006.6875 137.753906 C 1007.496094 138.347656 1008.261719 138.988281 1008.988281 139.683594 C 1009.710938 140.375 1010.382812 141.113281 1011.007812 141.894531 C 1011.632812 142.675781 1012.203125 143.496094 1012.71875 144.355469 C 1013.234375 145.214844 1013.691406 146.101562 1014.089844 147.019531 C 1014.488281 147.941406 1014.824219 148.878906 1015.09375 149.84375 C 1015.367188 150.808594 1015.574219 151.785156 1015.71875 152.773438 C 1015.859375 153.765625 1015.9375 154.761719 1015.949219 155.765625 C 1015.957031 156.765625 1015.902344 157.765625 1015.78125 158.757812 L 998.195312 316.765625 L 976.28125 514.121094 Z M 815.964844 396.992188 " fill-opacity="1" fill-rule="nonzero"/></g></g></g><g clip-path="url(#b4f22b4845)"><g clip-path="url(#31fad9a0c0)"><g clip-path="url(#c5bff4112e)"><path fill="#ffc138" d="M 974.527344 613.898438 L 938.707031 532.757812 L 1027.1875 542.1875 L 1098.078125 549.757812 C 1098.972656 549.851562 1099.835938 550.0625 1100.671875 550.382812 C 1101.507812 550.707031 1102.289062 551.128906 1103.015625 551.65625 C 1103.738281 552.183594 1104.378906 552.796875 1104.941406 553.496094 C 1105.503906 554.191406 1105.964844 554.949219 1106.328125 555.769531 C 1106.6875 556.585938 1106.933594 557.4375 1107.070312 558.324219 C 1107.207031 559.207031 1107.226562 560.09375 1107.125 560.984375 C 1107.027344 561.875 1106.816406 562.738281 1106.488281 563.574219 C 1106.160156 564.410156 1105.734375 565.1875 1105.199219 565.910156 L 1063.035156 623.394531 L 1010.398438 695.21875 Z M 974.527344 613.898438 " fill-opacity="1" fill-rule="nonzero"/></g></g></g><g clip-path="url(#4e2b37760f)"><g clip-path="url(#1e44b9024e)"><g clip-path="url(#c779699af6)"><path fill="#ffd700" d="M 943.527344 449.382812 C 821.417969 276.410156 694.328125 264.695312 694.328125 264.695312 C 689.964844 265.03125 546.578125 225.710938 381.199219 311.296875 C 215.824219 396.878906 181.679688 588.679688 307.578125 699.980469 C 430.128906 808.324219 775.5625 703.492188 773.257812 922.449219 C 770.464844 923.542969 767.699219 924.6875 764.953125 925.890625 C 762.210938 927.09375 759.492188 928.351562 756.800781 929.664062 C 754.105469 930.976562 751.441406 932.34375 748.800781 933.765625 C 746.164062 935.183594 743.554688 936.65625 740.976562 938.183594 C 738.398438 939.707031 735.851562 941.285156 733.335938 942.914062 C 730.824219 944.539062 728.34375 946.21875 725.894531 947.945312 C 723.449219 949.675781 721.039062 951.453125 718.664062 953.277344 C 716.289062 955.101562 713.949219 956.976562 711.652344 958.894531 C 709.351562 960.816406 707.09375 962.78125 704.875 964.789062 C 702.65625 966.800781 700.476562 968.855469 698.339844 970.953125 C 696.203125 973.050781 694.109375 975.191406 692.0625 977.375 C 690.011719 979.558594 688.007812 981.78125 686.046875 984.046875 C 684.089844 986.308594 682.175781 988.609375 680.308594 990.949219 C 678.445312 993.292969 676.625 995.667969 674.855469 998.082031 C 673.085938 1000.496094 671.367188 1002.945312 669.695312 1005.425781 C 668.027344 1007.910156 666.40625 1010.425781 664.839844 1012.972656 C 663.269531 1015.523438 661.753906 1018.101562 660.289062 1020.710938 C 658.828125 1023.316406 657.417969 1025.957031 656.058594 1028.621094 C 654.703125 1031.285156 653.402344 1033.976562 652.152344 1036.695312 C 650.90625 1039.414062 649.714844 1042.15625 648.578125 1044.921875 C 647.441406 1047.6875 646.363281 1050.476562 645.339844 1053.285156 C 644.316406 1056.09375 643.351562 1058.921875 642.445312 1061.769531 C 641.535156 1064.617188 640.683594 1067.480469 639.894531 1070.363281 C 639.101562 1073.246094 638.367188 1076.140625 637.695312 1079.050781 C 637.019531 1081.964844 636.40625 1084.886719 635.851562 1087.820312 C 635.292969 1090.757812 634.800781 1093.703125 634.363281 1096.65625 C 633.925781 1099.613281 633.550781 1102.574219 633.234375 1105.546875 C 632.921875 1108.515625 632.664062 1111.492188 632.472656 1114.46875 C 632.277344 1117.449219 632.144531 1120.433594 632.070312 1123.417969 C 631.996094 1126.402344 631.984375 1129.386719 632.03125 1132.375 C 632.078125 1135.359375 632.1875 1138.339844 632.355469 1141.320312 C 632.527344 1144.300781 632.753906 1147.277344 633.046875 1150.25 C 633.167969 1151.609375 633.476562 1152.929688 633.972656 1154.203125 C 634.464844 1155.476562 635.125 1156.65625 635.953125 1157.746094 C 636.785156 1158.832031 637.746094 1159.785156 638.84375 1160.601562 C 639.941406 1161.417969 641.132812 1162.066406 642.414062 1162.546875 C 643.695312 1163.03125 645.019531 1163.324219 646.386719 1163.433594 C 647.753906 1163.546875 649.109375 1163.464844 650.457031 1163.195312 C 651.800781 1162.921875 653.082031 1162.472656 654.300781 1161.84375 C 655.519531 1161.210938 656.628906 1160.425781 657.628906 1159.484375 C 660.90625 1156.332031 664.277344 1153.28125 667.742188 1150.332031 C 671.207031 1147.386719 674.757812 1144.546875 678.398438 1141.816406 C 682.039062 1139.085938 685.757812 1136.46875 689.558594 1133.964844 C 693.359375 1131.464844 697.230469 1129.082031 701.179688 1126.816406 C 705.125 1124.550781 709.140625 1122.410156 713.21875 1120.390625 C 717.296875 1118.371094 721.433594 1116.476562 725.628906 1114.714844 C 729.820312 1112.949219 734.066406 1111.3125 738.363281 1109.808594 C 742.65625 1108.300781 746.992188 1106.929688 751.371094 1105.691406 C 755.75 1104.453125 760.164062 1103.347656 764.609375 1102.382812 C 769.054688 1101.414062 773.527344 1100.582031 778.023438 1099.886719 C 782.519531 1099.195312 787.03125 1098.636719 791.5625 1098.222656 C 796.09375 1097.804688 800.632812 1097.527344 805.175781 1097.390625 C 809.722656 1097.25 814.269531 1097.253906 818.816406 1097.394531 C 823.359375 1097.535156 827.898438 1097.8125 832.425781 1098.234375 C 836.953125 1098.652344 841.460938 1099.210938 845.953125 1099.90625 C 850.445312 1100.605469 854.910156 1101.4375 859.351562 1102.410156 C 863.789062 1103.378906 868.195312 1104.484375 872.566406 1105.726562 C 876.9375 1106.96875 881.265625 1108.34375 885.550781 1109.851562 C 889.835938 1111.359375 894.066406 1112.996094 898.25 1114.765625 C 902.433594 1116.53125 906.558594 1118.425781 910.625 1120.449219 C 914.6875 1122.46875 918.6875 1124.613281 922.621094 1126.878906 C 926.550781 1129.148438 930.410156 1131.535156 934.195312 1134.039062 C 937.976562 1136.542969 941.679688 1139.160156 945.300781 1141.894531 C 948.921875 1144.625 952.457031 1147.46875 955.902344 1150.417969 C 959.347656 1153.367188 962.699219 1156.421875 965.957031 1159.578125 C 969.210938 1162.734375 972.367188 1165.988281 975.421875 1169.335938 C 978.476562 1172.6875 981.425781 1176.128906 984.265625 1179.660156 C 987.109375 1183.195312 989.839844 1186.808594 992.457031 1190.511719 C 995.074219 1194.210938 997.578125 1197.988281 999.960938 1201.84375 C 1002.34375 1205.699219 1004.609375 1209.625 1006.75 1213.617188 C 1008.890625 1217.613281 1010.90625 1221.667969 1012.796875 1225.789062 C 1014.6875 1229.90625 1016.449219 1234.082031 1018.082031 1238.308594 C 1018.582031 1239.574219 1019.246094 1240.75 1020.078125 1241.832031 C 1020.910156 1242.910156 1021.871094 1243.855469 1022.96875 1244.667969 C 1024.070312 1245.476562 1025.257812 1246.121094 1026.535156 1246.597656 C 1027.816406 1247.074219 1029.136719 1247.363281 1030.5 1247.472656 C 1031.863281 1247.578125 1033.214844 1247.496094 1034.558594 1247.222656 C 1035.898438 1246.953125 1037.175781 1246.503906 1038.390625 1245.875 C 1039.605469 1245.246094 1040.710938 1244.460938 1041.707031 1243.523438 C 1042.703125 1242.585938 1043.550781 1241.53125 1044.25 1240.355469 C 1045.742188 1237.847656 1047.183594 1235.3125 1048.574219 1232.746094 C 1049.964844 1230.179688 1051.304688 1227.589844 1052.59375 1224.972656 C 1053.878906 1222.355469 1055.117188 1219.710938 1056.300781 1217.046875 C 1057.480469 1214.378906 1058.613281 1211.691406 1059.6875 1208.980469 C 1060.765625 1206.273438 1061.789062 1203.542969 1062.757812 1200.792969 C 1063.722656 1198.039062 1064.636719 1195.273438 1065.496094 1192.488281 C 1066.355469 1189.699219 1067.15625 1186.898438 1067.902344 1184.082031 C 1068.652344 1181.261719 1069.34375 1178.433594 1069.976562 1175.589844 C 1070.613281 1172.742188 1071.191406 1169.886719 1071.710938 1167.019531 C 1072.234375 1164.152344 1072.695312 1161.277344 1073.105469 1158.394531 C 1073.511719 1155.507812 1073.859375 1152.617188 1074.152344 1149.71875 C 1074.445312 1146.820312 1074.679688 1143.917969 1074.859375 1141.007812 C 1075.035156 1138.101562 1075.152344 1135.191406 1075.214844 1132.28125 C 1075.277344 1129.367188 1075.28125 1126.457031 1075.226562 1123.546875 C 1075.171875 1120.632812 1075.058594 1117.726562 1074.890625 1114.816406 C 1074.71875 1111.910156 1074.492188 1109.007812 1074.207031 1106.113281 C 1073.921875 1103.214844 1073.582031 1100.324219 1073.179688 1097.441406 C 1072.78125 1094.558594 1072.324219 1091.683594 1071.808594 1088.816406 C 1071.292969 1085.953125 1070.722656 1083.097656 1070.097656 1080.257812 C 1069.46875 1077.414062 1068.785156 1074.585938 1068.042969 1071.769531 C 1067.304688 1068.957031 1066.507812 1066.15625 1065.65625 1063.375 C 1064.804688 1060.589844 1063.898438 1057.824219 1062.9375 1055.078125 C 1061.976562 1052.332031 1060.960938 1049.605469 1059.890625 1046.898438 C 1058.820312 1044.191406 1057.699219 1041.507812 1056.519531 1038.84375 C 1055.34375 1036.183594 1054.113281 1033.546875 1052.832031 1030.933594 C 1051.550781 1028.320312 1050.21875 1025.734375 1048.835938 1023.171875 C 1047.449219 1020.613281 1046.015625 1018.082031 1044.53125 1015.578125 C 1043.042969 1013.074219 1041.511719 1010.601562 1039.925781 1008.160156 C 1038.34375 1005.71875 1036.710938 1003.308594 1035.03125 1000.929688 C 1033.351562 998.554688 1031.625 996.210938 1029.851562 993.902344 C 1028.078125 991.59375 1026.261719 989.320312 1024.398438 987.082031 C 1022.535156 984.84375 1020.628906 982.644531 1018.675781 980.484375 C 1031.636719 926.199219 1087.050781 652.707031 943.527344 449.382812 Z M 943.527344 449.382812 " fill-opacity="1" fill-rule="nonzero"/></g></g></g><g clip-path="url(#e7c3c35da3)"><g clip-path="url(#7b92dcfe24)"><g clip-path="url(#e17b22d919)"><path fill="#fcf1eb" d="M 1018.65625 980.492188 C 842.757812 816.679688 811.269531 616.101562 589.484375 491.597656 C 588.988281 479.820312 591.285156 465.246094 588.570312 449.257812 C 583.476562 419.929688 571.082031 461.21875 555.425781 463.417969 C 539.765625 465.613281 551.128906 442.75 539.703125 426.609375 C 531.472656 414.878906 504.117188 435.691406 487.007812 447.539062 C 382.835938 416.683594 299.007812 434.105469 247.34375 453.855469 C 214.25 538.03125 232.242188 633.398438 307.578125 699.980469 C 430.105469 808.332031 775.542969 703.503906 773.234375 922.457031 C 770.445312 923.550781 767.679688 924.699219 764.9375 925.902344 C 762.191406 927.105469 759.472656 928.367188 756.78125 929.679688 C 754.089844 930.992188 751.425781 932.359375 748.789062 933.78125 C 746.148438 935.203125 743.542969 936.675781 740.964844 938.199219 C 738.386719 939.726562 735.839844 941.304688 733.328125 942.933594 C 730.8125 944.5625 728.332031 946.238281 725.886719 947.96875 C 723.441406 949.699219 721.03125 951.476562 718.65625 953.300781 C 716.28125 955.125 713.945312 957 711.644531 958.917969 C 709.347656 960.839844 707.089844 962.804688 704.871094 964.816406 C 702.652344 966.824219 700.472656 968.878906 698.339844 970.980469 C 696.203125 973.078125 694.109375 975.21875 692.0625 977.402344 C 690.011719 979.585938 688.007812 981.808594 686.050781 984.070312 C 684.089844 986.335938 682.179688 988.636719 680.3125 990.976562 C 678.445312 993.316406 676.628906 995.695312 674.859375 998.109375 C 673.089844 1000.519531 671.371094 1002.96875 669.699219 1005.453125 C 668.03125 1007.933594 666.410156 1010.449219 664.84375 1012.996094 C 663.273438 1015.546875 661.757812 1018.125 660.296875 1020.730469 C 658.832031 1023.339844 657.421875 1025.976562 656.066406 1028.644531 C 654.707031 1031.308594 653.40625 1034 652.160156 1036.71875 C 650.910156 1039.433594 649.71875 1042.175781 648.582031 1044.941406 C 647.445312 1047.707031 646.367188 1050.496094 645.34375 1053.304688 C 644.320312 1056.113281 643.355469 1058.941406 642.445312 1061.789062 C 641.535156 1064.636719 640.6875 1067.5 639.894531 1070.378906 C 639.101562 1073.261719 638.367188 1076.15625 637.695312 1079.070312 C 637.019531 1081.980469 636.402344 1084.902344 635.847656 1087.835938 C 635.292969 1090.773438 634.796875 1093.71875 634.359375 1096.671875 C 633.921875 1099.625 633.546875 1102.589844 633.230469 1105.558594 C 632.914062 1108.527344 632.65625 1111.503906 632.460938 1114.480469 C 632.265625 1117.460938 632.132812 1120.445312 632.058594 1123.429688 C 631.984375 1126.414062 631.96875 1129.398438 632.015625 1132.382812 C 632.0625 1135.367188 632.171875 1138.351562 632.339844 1141.332031 C 632.507812 1144.3125 632.734375 1147.285156 633.023438 1150.257812 C 633.152344 1151.617188 633.460938 1152.933594 633.957031 1154.207031 C 634.457031 1155.480469 635.117188 1156.660156 635.949219 1157.746094 C 636.777344 1158.832031 637.742188 1159.78125 638.839844 1160.597656 C 639.941406 1161.414062 641.128906 1162.0625 642.414062 1162.542969 C 643.695312 1163.023438 645.019531 1163.320312 646.386719 1163.429688 C 647.753906 1163.539062 649.109375 1163.457031 650.453125 1163.1875 C 651.796875 1162.917969 653.082031 1162.46875 654.300781 1161.839844 C 655.519531 1161.210938 656.628906 1160.425781 657.628906 1159.484375 C 660.90625 1156.332031 664.277344 1153.28125 667.742188 1150.332031 C 671.207031 1147.386719 674.757812 1144.546875 678.398438 1141.816406 C 682.039062 1139.085938 685.757812 1136.46875 689.558594 1133.964844 C 693.359375 1131.464844 697.230469 1129.082031 701.179688 1126.816406 C 705.125 1124.550781 709.140625 1122.410156 713.21875 1120.390625 C 717.296875 1118.371094 721.433594 1116.476562 725.628906 1114.714844 C 729.820312 1112.949219 734.066406 1111.3125 738.363281 1109.808594 C 742.65625 1108.300781 746.992188 1106.929688 751.371094 1105.691406 C 755.75 1104.453125 760.164062 1103.347656 764.609375 1102.382812 C 769.054688 1101.414062 773.527344 1100.582031 778.023438 1099.886719 C 782.519531 1099.195312 787.03125 1098.636719 791.5625 1098.222656 C 796.09375 1097.804688 800.632812 1097.527344 805.175781 1097.390625 C 809.722656 1097.25 814.269531 1097.253906 818.816406 1097.394531 C 823.359375 1097.535156 827.898438 1097.8125 832.425781 1098.234375 C 836.953125 1098.652344 841.460938 1099.210938 845.953125 1099.90625 C 850.445312 1100.605469 854.910156 1101.4375 859.351562 1102.410156 C 863.789062 1103.378906 868.195312 1104.484375 872.566406 1105.726562 C 876.9375 1106.96875 881.265625 1108.34375 885.550781 1109.851562 C 889.835938 1111.359375 894.066406 1112.996094 898.25 1114.765625 C 902.433594 1116.53125 906.558594 1118.425781 910.625 1120.449219 C 914.6875 1122.46875 918.6875 1124.613281 922.621094 1126.878906 C 926.550781 1129.148438 930.410156 1131.535156 934.195312 1134.039062 C 937.976562 1136.542969 941.679688 1139.160156 945.300781 1141.894531 C 948.921875 1144.625 952.457031 1147.46875 955.902344 1150.417969 C 959.347656 1153.367188 962.699219 1156.421875 965.957031 1159.578125 C 969.210938 1162.734375 972.367188 1165.988281 975.421875 1169.335938 C 978.476562 1172.6875 981.425781 1176.128906 984.265625 1179.660156 C 987.109375 1183.195312 989.839844 1186.808594 992.457031 1190.511719 C 995.074219 1194.210938 997.578125 1197.988281 999.960938 1201.84375 C 1002.34375 1205.699219 1004.609375 1209.625 1006.75 1213.617188 C 1008.890625 1217.613281 1010.90625 1221.667969 1012.796875 1225.789062 C 1014.6875 1229.90625 1016.449219 1234.082031 1018.082031 1238.308594 C 1018.582031 1239.574219 1019.246094 1240.75 1020.078125 1241.832031 C 1020.910156 1242.910156 1021.871094 1243.855469 1022.96875 1244.667969 C 1024.070312 1245.476562 1025.257812 1246.121094 1026.535156 1246.597656 C 1027.816406 1247.074219 1029.136719 1247.363281 1030.5 1247.472656 C 1031.863281 1247.578125 1033.214844 1247.496094 1034.558594 1247.222656 C 1035.898438 1246.953125 1037.175781 1246.503906 1038.390625 1245.875 C 1039.605469 1245.246094 1040.710938 1244.460938 1041.707031 1243.523438 C 1042.703125 1242.585938 1043.550781 1241.53125 1044.25 1240.355469 C 1045.742188 1237.847656 1047.179688 1235.308594 1048.570312 1232.746094 C 1049.960938 1230.179688 1051.300781 1227.589844 1052.585938 1224.972656 C 1053.875 1222.351562 1055.109375 1219.710938 1056.289062 1217.046875 C 1057.472656 1214.378906 1058.601562 1211.691406 1059.679688 1208.980469 C 1060.753906 1206.269531 1061.777344 1203.539062 1062.742188 1200.789062 C 1063.710938 1198.039062 1064.625 1195.269531 1065.480469 1192.484375 C 1066.339844 1189.699219 1067.140625 1186.898438 1067.886719 1184.078125 C 1068.632812 1181.261719 1069.324219 1178.429688 1069.957031 1175.585938 C 1070.59375 1172.742188 1071.167969 1169.886719 1071.691406 1167.019531 C 1072.210938 1164.152344 1072.675781 1161.277344 1073.082031 1158.390625 C 1073.488281 1155.507812 1073.835938 1152.617188 1074.128906 1149.71875 C 1074.421875 1146.820312 1074.65625 1143.917969 1074.832031 1141.007812 C 1075.007812 1138.101562 1075.128906 1135.191406 1075.1875 1132.28125 C 1075.25 1129.371094 1075.253906 1126.457031 1075.199219 1123.546875 C 1075.144531 1120.636719 1075.03125 1117.726562 1074.859375 1114.820312 C 1074.691406 1111.914062 1074.464844 1109.011719 1074.179688 1106.113281 C 1073.894531 1103.21875 1073.550781 1100.328125 1073.148438 1097.445312 C 1072.75 1094.558594 1072.292969 1091.6875 1071.777344 1088.820312 C 1071.265625 1085.957031 1070.691406 1083.101562 1070.066406 1080.261719 C 1069.4375 1077.417969 1068.753906 1074.589844 1068.011719 1071.777344 C 1067.273438 1068.960938 1066.476562 1066.164062 1065.625 1063.378906 C 1064.773438 1060.597656 1063.867188 1057.832031 1062.90625 1055.085938 C 1061.945312 1052.339844 1060.929688 1049.613281 1059.859375 1046.90625 C 1058.789062 1044.199219 1057.667969 1041.515625 1056.492188 1038.851562 C 1055.316406 1036.191406 1054.085938 1033.554688 1052.804688 1030.941406 C 1051.523438 1028.328125 1050.191406 1025.742188 1048.804688 1023.183594 C 1047.421875 1020.621094 1045.988281 1018.089844 1044.503906 1015.585938 C 1043.015625 1013.085938 1041.484375 1010.613281 1039.898438 1008.167969 C 1038.316406 1005.726562 1036.6875 1003.316406 1035.007812 1000.941406 C 1033.328125 998.5625 1031.601562 996.21875 1029.828125 993.910156 C 1028.058594 991.601562 1026.238281 989.328125 1024.375 987.089844 C 1022.511719 984.855469 1020.605469 982.65625 1018.65625 980.492188 Z M 1018.65625 980.492188 " fill-opacity="1" fill-rule="nonzero"/></g></g></g><g clip-path="url(#724e6df9c1)"><g clip-path="url(#5f8d47746c)"><g clip-path="url(#635c535e9e)"><path fill="#ffa4ba" d="M 294.894531 542.566406 C 294.394531 542.777344 293.910156 543.019531 293.4375 543.289062 C 292.964844 543.558594 292.511719 543.855469 292.078125 544.179688 C 291.640625 544.503906 291.226562 544.855469 290.835938 545.230469 C 290.441406 545.605469 290.074219 546.003906 289.730469 546.421875 C 289.386719 546.839844 289.066406 547.28125 288.777344 547.738281 C 288.484375 548.195312 288.222656 548.667969 287.992188 549.160156 C 287.757812 549.648438 287.554688 550.152344 287.382812 550.664062 C 287.210938 551.179688 287.074219 551.703125 286.964844 552.230469 C 286.855469 552.761719 286.78125 553.296875 286.738281 553.839844 C 286.695312 554.378906 286.6875 554.917969 286.710938 555.457031 C 286.734375 556 286.789062 556.535156 286.878906 557.070312 C 286.96875 557.605469 287.089844 558.128906 287.242188 558.648438 C 287.398438 559.167969 287.582031 559.675781 287.796875 560.171875 C 288.011719 560.667969 288.257812 561.148438 288.53125 561.613281 C 288.808594 562.082031 289.109375 562.527344 289.4375 562.957031 C 289.765625 563.386719 290.121094 563.796875 290.5 564.179688 C 308.195312 581.59375 339.378906 586.28125 368.480469 573.851562 C 397.582031 561.421875 415.78125 535.640625 415.433594 510.820312 C 415.417969 510.28125 415.367188 509.742188 415.285156 509.207031 C 415.203125 508.671875 415.089844 508.144531 414.941406 507.621094 C 414.792969 507.101562 414.617188 506.589844 414.40625 506.089844 C 414.195312 505.59375 413.957031 505.109375 413.6875 504.636719 C 413.417969 504.167969 413.121094 503.714844 412.796875 503.28125 C 412.472656 502.847656 412.125 502.4375 411.75 502.046875 C 411.375 501.65625 410.976562 501.289062 410.554688 500.945312 C 410.136719 500.601562 409.695312 500.285156 409.238281 499.996094 C 408.78125 499.710938 408.304688 499.449219 407.8125 499.21875 C 407.324219 498.988281 406.820312 498.785156 406.304688 498.617188 C 405.789062 498.445312 405.265625 498.308594 404.734375 498.203125 C 404.199219 498.097656 403.664062 498.023438 403.121094 497.980469 C 402.578125 497.941406 402.039062 497.933594 401.496094 497.960938 C 400.953125 497.984375 400.414062 498.042969 399.875 498.132812 C 399.339844 498.222656 398.8125 498.347656 398.292969 498.5 C 397.769531 498.65625 397.261719 498.84375 396.761719 499.058594 Z M 294.894531 542.566406 " fill-opacity="1" fill-rule="nonzero"/></g></g></g><g clip-path="url(#9f3416b37b)"><g clip-path="url(#76ff05da3b)"><g clip-path="url(#aed99aa5ba)"><path fill="#703e23" d="M 441.222656 376.425781 C 441.441406 376.933594 441.605469 377.460938 441.71875 378.003906 C 441.835938 378.546875 441.894531 379.09375 441.898438 379.648438 C 441.90625 380.203125 441.855469 380.753906 441.753906 381.296875 C 441.648438 381.84375 441.492188 382.375 441.285156 382.890625 C 441.078125 383.402344 440.820312 383.894531 440.515625 384.359375 C 440.210938 384.824219 439.863281 385.253906 439.476562 385.652344 C 439.085938 386.046875 438.660156 386.402344 438.203125 386.71875 C 437.742188 387.03125 437.257812 387.296875 436.746094 387.515625 C 436.234375 387.734375 435.703125 387.902344 435.160156 388.015625 C 434.617188 388.132812 434.066406 388.191406 433.511719 388.199219 C 432.953125 388.207031 432.402344 388.160156 431.855469 388.058594 C 431.308594 387.957031 430.777344 387.800781 430.261719 387.597656 C 429.746094 387.390625 429.257812 387.136719 428.789062 386.835938 C 428.324219 386.53125 427.894531 386.1875 427.496094 385.800781 C 427.101562 385.414062 426.746094 384.992188 426.433594 384.535156 C 426.117188 384.074219 425.851562 383.59375 425.636719 383.082031 C 425.417969 382.574219 425.253906 382.046875 425.140625 381.503906 C 425.023438 380.960938 424.964844 380.414062 424.960938 379.859375 C 424.953125 379.304688 425.003906 378.753906 425.109375 378.210938 C 425.210938 377.664062 425.367188 377.132812 425.574219 376.621094 C 425.78125 376.105469 426.039062 375.613281 426.34375 375.148438 C 426.648438 374.683594 426.996094 374.253906 427.382812 373.855469 C 427.773438 373.460938 428.199219 373.105469 428.65625 372.789062 C 429.117188 372.476562 429.601562 372.210938 430.113281 371.992188 C 430.625 371.773438 431.15625 371.605469 431.699219 371.492188 C 432.242188 371.378906 432.792969 371.316406 433.347656 371.308594 C 433.90625 371.300781 434.457031 371.347656 435.003906 371.449219 C 435.550781 371.550781 436.082031 371.707031 436.597656 371.910156 C 437.113281 372.117188 437.601562 372.371094 438.070312 372.675781 C 438.535156 372.976562 438.964844 373.320312 439.363281 373.707031 C 439.757812 374.09375 440.113281 374.519531 440.425781 374.976562 C 440.742188 375.433594 441.007812 375.914062 441.222656 376.425781 Z M 441.222656 376.425781 " fill-opacity="1" fill-rule="nonzero"/></g></g></g><g clip-path="url(#d950fb4912)"><g clip-path="url(#998e2904a0)"><g clip-path="url(#9f274b90c7)"><path fill="#ffd700" d="M 696.941406 524.578125 C 696.941406 524.578125 655.792969 655.839844 668.855469 662.644531 C 681.921875 669.449219 832.277344 592.84375 832.277344 592.84375 " fill-opacity="1" fill-rule="nonzero"/></g></g></g><g clip-path="url(#fa3562c507)"><g clip-path="url(#ebc6b25b17)"><g clip-path="url(#72ffdf1094)"><path fill="#ffc138" d="M 689.007812 521.429688 C 683.367188 539.429688 678.167969 557.589844 673.257812 575.796875 C 669.246094 590.757812 665.390625 605.75 662.253906 620.90625 C 659.878906 632.285156 657.515625 643.976562 657.835938 655.632812 C 657.769531 657.714844 658.039062 659.753906 658.640625 661.746094 C 659.242188 663.738281 660.144531 665.582031 661.347656 667.28125 C 664.507812 671.136719 669.152344 671.867188 673.832031 671.449219 C 678.035156 670.875 682.140625 669.894531 686.148438 668.507812 C 691.171875 666.980469 696.125 665.183594 701.039062 663.28125 C 728.417969 652.796875 755.03125 640.222656 781.398438 627.429688 C 799.28125 618.832031 817.152344 610.210938 834.789062 601.097656 L 835.691406 600.714844 C 836.199219 600.484375 836.683594 600.210938 837.136719 599.890625 C 837.59375 599.570312 838.015625 599.207031 838.402344 598.804688 C 838.789062 598.40625 839.136719 597.96875 839.4375 597.503906 C 839.742188 597.035156 840 596.542969 840.207031 596.027344 C 840.414062 595.511719 840.574219 594.980469 840.679688 594.433594 C 840.785156 593.886719 840.839844 593.335938 840.839844 592.777344 C 840.835938 592.222656 840.785156 591.671875 840.679688 591.125 C 840.570312 590.578125 840.414062 590.050781 840.203125 589.535156 C 838.335938 585.621094 833.28125 582.894531 829.007812 585.066406 C 814.765625 592.332031 800.441406 599.386719 785.953125 606.414062 C 759.652344 619.203125 733.203125 631.808594 706.136719 642.972656 C 700.605469 645.335938 694.972656 647.519531 689.316406 649.589844 C 686.929688 650.460938 684.535156 651.285156 682.125 652.066406 L 679.160156 653.011719 L 677.613281 653.453125 C 676.859375 653.773438 680.226562 652.78125 677.90625 653.328125 C 676.292969 653.71875 674.65625 654.121094 673.007812 654.382812 L 671.097656 654.605469 C 668.949219 654.859375 673.457031 654.855469 671.507812 654.578125 C 669.554688 654.304688 673.628906 655.375 672.347656 654.863281 C 671.0625 654.351562 674.222656 656.011719 673.695312 655.644531 C 672.589844 654.855469 675.492188 657.589844 674.675781 656.605469 C 673.859375 655.621094 676.019531 659.289062 675.089844 657.167969 C 674.160156 655.050781 675.4375 659.660156 675.144531 657.292969 C 675.054688 656.566406 674.9375 655.828125 674.882812 655.0625 C 674.828125 654.296875 674.835938 654.195312 674.8125 653.734375 C 674.703125 651.734375 674.761719 654.890625 674.792969 654.210938 C 674.890625 652 674.964844 649.796875 675.160156 647.589844 C 675.730469 641.847656 676.664062 636.144531 677.757812 630.46875 C 680.367188 616.453125 683.785156 602.585938 687.378906 588.785156 C 687.464844 588.40625 687.558594 588.042969 687.671875 587.675781 C 687.140625 589.679688 687.433594 588.566406 687.542969 588.125 L 688.265625 585.347656 L 689.730469 579.910156 C 690.679688 576.367188 691.652344 572.84375 692.648438 569.339844 C 694.367188 563.152344 696.144531 556.992188 697.945312 550.820312 C 700.097656 543.453125 702.3125 536.089844 704.589844 528.738281 L 704.917969 527.710938 C 705.113281 527.1875 705.257812 526.652344 705.347656 526.105469 C 705.441406 525.558594 705.480469 525.003906 705.46875 524.449219 C 705.457031 523.894531 705.390625 523.34375 705.273438 522.800781 C 705.15625 522.261719 704.988281 521.734375 704.769531 521.222656 C 704.550781 520.710938 704.285156 520.226562 703.976562 519.765625 C 703.664062 519.304688 703.3125 518.878906 702.921875 518.488281 C 702.527344 518.09375 702.101562 517.742188 701.644531 517.429688 C 701.183594 517.117188 700.699219 516.851562 700.1875 516.628906 C 699.664062 516.425781 699.128906 516.277344 698.578125 516.179688 C 698.027344 516.082031 697.472656 516.035156 696.914062 516.046875 C 696.351562 516.054688 695.800781 516.117188 695.25 516.234375 C 694.703125 516.351562 694.171875 516.519531 693.65625 516.742188 C 693.140625 516.960938 692.652344 517.230469 692.1875 517.542969 C 691.726562 517.859375 691.296875 518.214844 690.902344 518.613281 C 690.507812 519.011719 690.15625 519.441406 689.847656 519.90625 C 689.539062 520.375 689.277344 520.863281 689.0625 521.382812 Z M 689.007812 521.429688 " fill-opacity="1" fill-rule="nonzero"/></g></g></g></svg>